<?xml version="1.0" encoding="UTF-8" standalone="no"?>
<svg
   xmlns:dc="http://purl.org/dc/elements/1.1/"
   xmlns:cc="http://creativecommons.org/ns#"
   xmlns:rdf="http://www.w3.org/1999/02/22-rdf-syntax-ns#"
   xmlns:svg="http://www.w3.org/2000/svg"
   xmlns="http://www.w3.org/2000/svg"
   xmlns:sodipodi="http://sodipodi.sourceforge.net/DTD/sodipodi-0.dtd"
   xmlns:inkscape="http://www.inkscape.org/namespaces/inkscape"
   viewBox="0 0 210 297"
   height="297mm"
   width="210mm"
   version="1.1"
   id="svg24"
   sodipodi:docname="made-with-love-and-javascript.svg"
   inkscape:version="0.92.2 5c3e80d, 2017-08-06">
  <metadata
     id="metadata30">
    <rdf:RDF>
      <cc:Work
         rdf:about="">
        <dc:format>image/svg+xml</dc:format>
        <dc:type
           rdf:resource="http://purl.org/dc/dcmitype/StillImage" />
        <dc:title></dc:title>
      </cc:Work>
    </rdf:RDF>
  </metadata>
  <defs
     id="defs28" />
  <sodipodi:namedview
     pagecolor="#ffffff"
     bordercolor="#666666"
     borderopacity="1"
     objecttolerance="10"
     gridtolerance="10"
     guidetolerance="10"
     inkscape:pageopacity="0"
     inkscape:pageshadow="2"
     inkscape:window-width="1068"
     inkscape:window-height="745"
     id="namedview26"
     showgrid="false"
     inkscape:zoom="0.5946522"
     inkscape:cx="380.80403"
     inkscape:cy="784.71156"
     inkscape:window-x="0"
     inkscape:window-y="0"
     inkscape:window-maximized="0"
     inkscape:current-layer="g22" />
  <g
     fill="none"
     stroke="#000"
     id="g22">
    <path
       d="M 5.397,5.93 6.225,4.87 7.145,3.766 8.205,3.168 h 0.598 l 0.46,0.414 -0.092,0.92 -0.368,1.013 -3.912,7.18 3.958,-6.905 0.92,-1.058 0.783,-0.92 0.69,-0.507 0.782,-0.138 0.737,0.092 0.46,0.506 0.138,0.69 -0.368,1.105 -3.912,7.226 3.636,-6.582 0.874,-0.874 0.783,-0.967 0.552,-0.598 0.644,-0.46 0.783,-0.184 0.644,0.092 0.368,0.368 0.138,0.875 -0.644,1.472 -2.21,3.636 -0.69,1.657 -0.184,0.736 0.138,0.553 0.553,0.46 0.69,0.046 0.874,-0.368 0.875,-0.783 1.058,-1.196 0.967,-1.243"
       id="path2" />
    <path
       d="M 23.944,8.369 24.313,7.31 V 6.251 l -0.507,-0.506 -1.334,0.046 -1.657,1.013 -1.105,1.104 -0.69,1.335 -0.552,0.966 -0.322,1.381 0.092,0.737 0.736,0.552 1.197,-0.368 1.472,-1.243 1.335,-1.473 1.335,-2.025 1.058,-1.84 -2.577,4.602 -0.276,1.058 0.092,0.737 0.598,0.552 0.92,-0.138 1.151,-0.645 1.38,-1.518 0.967,-1.15"
       id="path4" />
    <path
       style="stroke-width:0.46759781"
       d="m 32.568479,8.0504154 0.186945,-1.1216739 -0.140209,-0.9347283 -0.5141,-0.4216437 -1.075954,0.1402092 -1.356372,0.7487986 -1.028201,1.0282011 -0.841255,1.0292172 -0.701047,1.2151467 -0.421643,1.2628997 -0.09347,1.028201 0.280418,0.655325 0.747783,0.280419 1.216163,-0.514101 1.309635,-1.12269 1.121674,-1.309635 1.778016,-2.6649918 2.664992,-4.9093555 -3.881155,7.106983 -0.421644,0.9347283 -0.327154,0.608589 -0.04674,0.794519 0.280419,0.701047 0.701046,0.328171 0.889008,-0.14021 1.16841,-0.795535 1.029217,-1.121674 1.075954,-1.4020921"
       id="path4551" />
    <path
       style="stroke-width:0.46759781"
       d="m 36.543106,9.4535199 1.356372,-0.4206278 1.448829,-0.3738913 0.982481,-0.4673641 0.794519,-0.7010462 0.327155,-0.9824808 -0.280419,-0.7487986 -1.16841,-0.2336821 -1.544334,0.7945191 -1.35434,1.5900541 -0.841255,1.6367905 -0.467365,1.4965813 0.14021,1.121674 0.747782,0.701046 1.216163,0.04775 1.495565,-0.514101 1.449845,-1.12269 0.794519,-0.841255 0.748799,-0.9824811"
       id="path4549" />
    <path
       style="stroke-width:0.46759781"
       d="m 47.297561,5.8060445 c -0.919488,1.7079112 -1.854216,3.4097263 -2.765576,5.1217015 -0.07823,0.334267 -0.219458,0.660406 -0.179834,1.008897 -0.002,0.176785 -0.02642,0.358651 0.104649,0.497844 0.09449,0.142242 0.148337,0.331219 0.338331,0.365764 0.172722,0.06299 0.336299,0.215393 0.527309,0.124969 0.293626,-0.05385 0.589285,-0.100585 0.849383,-0.259083 0.293627,-0.159513 0.640086,-0.24181 0.863608,-0.505972 0.601477,-0.558805 1.198891,-1.124722 1.710959,-1.767856 0.215394,-0.22149 0.379988,-0.4785401 0.518165,-0.7548945 l 2.147843,-3.830354 -2.851937,5.3767195 c -0.03658,0.266195 -0.127002,0.532389 -0.129034,0.797567 0.05486,0.187962 0.0701,0.401324 0.149354,0.574045 0.189993,0.116841 0.334267,0.350523 0.579125,0.326139 0.203202,0.01626 0.4125,0.06604 0.597413,-0.04877 0.299723,-0.107697 0.602493,-0.208282 0.85548,-0.40742 0.275338,-0.171705 0.550677,-0.344427 0.768103,-0.589285 0.264162,-0.27229 0.576077,-0.50394 0.804679,-0.804679 0.365763,-0.563885 0.792487,-1.0911938 1.076969,-1.7028312 0.186946,-0.3586512 0.393196,-0.7112064 0.488701,-1.1074499 0.174753,-0.5415328 0.361699,-1.0871296 0.462284,-1.6459346 l -0.13513,-0.7691188"
       id="path4547" />
    <path
       style="stroke-width:0.46759781"
       d="m 58.520397,3.6551515 -0.280419,0.1402092 0.04674,0.4206277 0.373891,-0.046736 L 58.847555,3.8420975 58.5204,3.6551519"
       id="path4545" />
    <path
       style="stroke-width:0.46759781"
       d="m 57.491183,5.8060429 -2.336821,4.3952541 -0.421644,0.934729 -0.186945,0.609605 0.140209,0.607574 0.420628,0.467364 0.98248,0.04674 1.028201,-0.5141 1.2629,-1.075954 0.607573,-0.747783 0.748799,-1.0759527"
       id="path6" />
    <path
       d="M 62.236,4.272 61.5,5.792 h 2.209 -4.28 2.07 l -2.393,4.28 -0.414,1.15 -0.046,1.059 0.92,0.644 1.06,-0.23 1.196,-0.69 1.288,-1.427 0.829,-1.15"
       id="path8" />
    <path
       d="m 67.62,2.524 -5.521,10.216 2.393,-4.004 1.059,-1.013 1.104,-1.15 0.783,-0.645 0.966,-0.23 0.736,0.092 0.46,0.46 v 0.875 l -0.46,0.92 -1.15,2.025 -0.644,1.335 v 0.506 l 0.138,0.599 0.644,0.322 0.736,-0.092 1.013,-0.46 1.38,-1.335 1.151,-1.519"
       id="path4557" />
    <path
       d="m 83.729,6.804 0.69,-0.69 0.783,-0.829 0.506,-0.967 v -0.69 l -0.23,-0.414 -0.69,-0.046 -1.06,0.46 -0.874,0.875 -0.782,1.196 -0.92,1.519 -0.783,1.38 -1.058,1.704 -0.69,1.012 -0.691,0.782 -0.644,0.507 -1.105,0.368 -0.92,0.092 -1.013,-0.368 0.184,-0.645 0.644,-0.276 h 0.783 l 0.966,0.23 1.289,0.507 1.197,0.368 1.38,0.184 1.105,-0.23 1.243,-0.552 1.15,-1.013 0.736,-0.782 0.737,-1.059"
       id="path10" />
    <path
       d="m 86.214,12.787 1.013,-0.23 1.426,-0.875 1.381,-1.61 0.828,-1.75 0.323,-1.38 -0.276,-0.92 -0.69,-0.415 h -0.967 l -1.197,0.644 -1.012,0.875 -0.875,1.058 -0.552,1.197 -0.368,1.059 -0.184,1.104 0.23,0.829 0.368,0.322 0.552,0.092"
       id="path4565" />
    <path
       d="m 94.498,5.837 -2.439,4.28 -0.368,1.151 -0.046,0.92 0.322,0.507 0.644,0.138 0.967,-0.23 1.15,-0.783 1.197,-1.15 L 96.661,9.473 97.306,8 97.49,6.758 97.582,6.205 97.444,5.791"
       id="path4563" />
    <path
       d="m 99.423,9.427 1.335,-0.414 1.426,-0.368 0.967,-0.46 0.782,-0.69 0.322,-0.967 -0.276,-0.737 -1.15,-0.23 -1.52,0.782 -1.334,1.565 -0.828,1.611 -0.46,1.473 0.138,1.104 0.736,0.69 1.197,0.047 1.472,-0.506 1.427,-1.105 0.782,-0.828 0.737,-0.967"
       id="path4561" />
    <path
       d="M 113.138,8.369 113.506,7.31 V 6.251 L 113,5.745 l -1.335,0.046 -1.657,1.013 -1.104,1.104 -0.69,1.335 -0.553,0.966 -0.322,1.381 0.092,0.737 0.736,0.552 1.197,-0.368 1.473,-1.243 1.334,-1.473 1.335,-2.025 1.059,-1.84 -2.578,4.602 -0.276,1.058 0.092,0.737 0.598,0.552 0.92,-0.138 1.151,-0.645 1.381,-1.518 0.967,-1.15"
       id="path12" />
    <path
       d="m 118.753,5.791 -3.82,6.95 2.025,-3.36 1.012,-1.197 0.875,-1.012 0.966,-0.875 1.013,-0.598 h 0.874 l 0.506,0.23 0.323,0.69 -0.369,1.151 -0.966,1.703 -0.69,1.243 -0.323,0.966 0.184,0.69 0.507,0.415 h 0.874 l 0.967,-0.506 1.104,-1.013 0.783,-0.92 0.736,-0.92"
       id="path14" />
    <path
       d="m 130.489,8.046 0.184,-1.104 -0.138,-0.92 -0.507,-0.415 -1.058,0.138 -1.335,0.737 -1.012,1.012 -0.829,1.013 -0.69,1.196 -0.414,1.243 -0.092,1.012 0.276,0.645 0.736,0.276 1.197,-0.506 1.288,-1.105 1.105,-1.289 1.749,-2.623 2.623,-4.832 -3.82,6.995 -0.414,0.92 -0.322,0.599 -0.046,0.782 0.276,0.69 0.69,0.323 0.875,-0.138 1.15,-0.783 1.013,-1.104 1.058,-1.38"
       id="path4573" />
    <path
       d="m 141.672,5.469 0.046,-0.874 0.415,-0.829 0.874,-0.46 0.874,-0.046 0.92,0.276 1.013,0.092 1.197,-0.092 1.059,-0.368 -1.013,0.506 -1.012,0.967 -0.829,1.288 -0.828,1.427 -0.645,1.243 -0.782,1.242 -0.736,1.381 -1.059,1.657 -0.874,1.058 -0.783,0.875 -1.104,0.69 -1.059,0.322 -0.92,0.046 -0.783,-0.368 -0.046,-0.966 0.599,-0.737 0.966,-0.506 1.565,-0.368 1.196,-0.138 2.21,-0.138 1.702,-0.415 1.243,-0.644 1.059,-1.012 0.874,-1.15"
       id="path4571" />
    <path
       d="M 152.12,8.369 152.488,7.31 V 6.251 l -0.506,-0.506 -1.335,0.046 -1.657,1.013 -1.105,1.104 -0.69,1.335 -0.552,0.966 -0.322,1.381 0.092,0.737 0.736,0.552 1.197,-0.368 1.472,-1.243 1.335,-1.473 1.335,-2.025 1.058,-1.84 -2.577,4.602 -0.276,1.058 0.092,0.737 0.598,0.552 0.92,-0.138 1.151,-0.645 1.381,-1.518 0.967,-1.15"
       id="path16" />
    <path
       d="m 157.688,5.837 -2.439,4.28 -0.368,1.151 -0.046,0.92 0.322,0.507 0.645,0.138 0.966,-0.23 1.15,-0.783 1.197,-1.15 0.737,-1.197 0.644,-1.473 0.184,-1.242 0.092,-0.553 -0.138,-0.414"
       id="path4581" />
    <path
       d="M 167.307,8.369 167.676,7.31 V 6.251 l -0.507,-0.506 -1.334,0.046 -1.657,1.013 -1.105,1.104 -0.69,1.335 -0.552,0.966 -0.323,1.381 0.092,0.737 0.737,0.552 1.196,-0.368 1.473,-1.243 1.335,-1.473 1.335,-2.025 1.058,-1.84 -2.577,4.602 -0.276,1.058 0.092,0.737 0.598,0.552 0.92,-0.138 1.151,-0.645 1.38,-1.518 0.967,-1.15"
       id="path4579" />
    <path
       d="m 171.542,9.335 -0.277,0.046 -0.598,0.69 -0.23,0.645 v 0.644 l 0.46,0.828 0.598,0.599 1.105,0.276 1.15,-0.276 1.29,-0.599 0.92,-1.196 0.276,-1.105 -0.138,-1.196 -0.598,-1.381 -0.139,-1.197 0.23,-1.334 0.737,-0.92 1.104,-0.691 h 0.921 l 0.736,0.184 0.507,0.414 0.184,0.737 -0.322,0.69 -0.46,0.736"
       id="path4577" />
    <path
       d="m 183.922,6.528 0.138,0.23 0.368,-0.138 0.092,-0.323 -0.092,-0.368 -0.598,-0.322 -1.197,0.184 -1.012,0.645 -1.059,1.012 -0.874,1.38 -0.553,1.105 -0.184,1.197 0.138,0.966 0.553,0.599 0.736,0.184 1.105,-0.092 1.104,-0.506 1.105,-0.783 1.012,-1.15 0.829,-0.92"
       id="path18" />
    <path
       d="m 187.42,5.791 -3.728,6.904 2.025,-3.498 1.242,-1.289 0.92,-1.012 0.83,-0.829 0.782,-0.368 0.598,-0.092 0.276,0.23 0.092,0.368 -0.138,0.507 -0.414,0.138 -0.138,-0.138 0.276,-0.322"
       id="path4591" />
    <path
       d="m 193.679,3.72 -0.276,0.138 0.046,0.414 0.368,-0.046 0.184,-0.322 -0.322,-0.184"
       id="path4589" />
    <path
       d="m 192.666,5.837 -2.3,4.326 -0.415,0.92 -0.184,0.6 0.138,0.598 0.414,0.46 0.967,0.046 1.012,-0.506 1.243,-1.059 0.598,-0.736 0.736,-1.059"
       id="path4587" />
    <path
       d="m 191.424,15.916 3.728,-6.903 1.242,-1.105 1.473,-1.565 0.92,-0.598 0.875,-0.092 0.644,0.322 0.23,1.013 -0.46,1.242 -0.92,1.795 -0.69,0.967 -1.151,1.058 -0.875,0.46 -0.736,0.23 -0.552,0.093 -0.553,-0.046 -0.322,-0.46 v -0.69 l 0.138,-0.921 0.783,-1.795 1.748,-3.222"
       id="path4585" />
    <path
       d="m 204.816,4.272 -0.736,1.52 h 2.21 -4.281 2.071 l -2.393,4.28 -0.414,1.15 -0.046,1.059 0.92,0.644 1.059,-0.23 1.196,-0.69 1.289,-1.427 0.828,-1.15"
       id="path20" />
  </g>
</svg>
