<svg viewBox="0 0 210 297"><g fill="none" stroke="#000"><path d="M 4.4891878,6.4386287 5.0508275,5.7209788 5.674872,4.9721258 6.3925232,4.5664964 H 6.7981515 L 7.1101731,4.8473162 7.0477648,5.4713607 6.7981468,6.1578089 4.1459596,11.025353 6.8293486,6.3450221 7.4533931,5.6273722 7.983831,5.0033276 8.4518641,4.660103 8.9823008,4.5665023 9.4815369,4.6289106 9.7935585,4.9721353 9.8871711,5.4401684 9.637553,6.1890213 6.9853659,11.087767 9.4503398,6.6258514 10.043182,6.0330099 l 0.530437,-0.6552463 0.374427,-0.4056283 0.43683,-0.3120229 0.530438,-0.1248084 0.43683,0.062408 0.249619,0.2496169 0.0936,0.5928427 -0.436831,0.9984698 -1.497705,2.4649751 -0.468034,1.1232795 -0.124808,0.499235 0.0936,0.374427 0.374426,0.312021 0.468033,0.0312 0.592841,-0.249618 0.592843,-0.530438 0.71765,-0.8112564 0.655246,-0.8424596"/><path d="M 17.063677,8.0923461 17.313294,7.3746949 V 6.657045 l -0.343223,-0.3432247 -0.904865,0.031204 -1.123279,0.6864493 -0.748853,0.7488529 -0.468033,0.9048632 -0.374427,0.6552464 -0.218415,0.9360659 0.06241,0.499237 0.499236,0.374426 0.811256,-0.249618 0.998471,-0.84246 0.904865,-0.9984708 0.904863,-1.3728963 0.717651,-1.248089 -1.747324,3.1202214 -0.187213,0.7176497 0.06241,0.499237 0.405628,0.374426 0.624045,-0.0936 0.780055,-0.436831 0.936066,-1.0296732 0.655246,-0.7800548"/><path d="m 23.023298,7.873931 0.124809,-0.7488529 -0.0936,-0.6240446 -0.343225,-0.2808198 -0.717651,0.093601 -0.904863,0.4992349 -0.68645,0.6864493 -0.561639,0.6864482 -0.468033,0.8112577 -0.28082,0.8424596 -0.06241,0.6864476 0.187214,0.436832 0.499235,0.187213 0.811257,-0.343225 0.873662,-0.748853 0.748853,-0.8736609 1.185684,-1.7785258 1.778526,-3.2762316 -2.589784,4.7427345 -0.28082,0.6240445 -0.218415,0.4056283 -0.0312,0.530438 0.187213,0.468033 0.468033,0.218415 0.592843,-0.0936 0.780055,-0.530437 0.686448,-0.7488526 0.717651,-0.9360661"/><path d="m 25.675486,8.8099972 0.904863,-0.2808199 0.967269,-0.249618 0.655247,-0.3120217 0.530437,-0.4680331 0.218416,-0.6552463 -0.187213,-0.4992361 -0.780056,-0.1560102 -1.029673,0.5304367 -0.904863,1.0608758 -0.56164,1.0920764 -0.312023,0.998471 0.0936,0.7488532 0.499236,0.468033 0.811256,0.0312 0.998471,-0.343223 0.967268,-0.748853 0.530438,-0.5616401 0.499235,-0.6552464"/><path d="m 32.851993,6.3762251 -1.840931,3.4010401 -0.124808,0.4680328 v 0.436832 l 0.187213,0.312021 0.343225,0.156011 0.468033,-0.0936 0.655246,-0.312023 0.499235,-0.468033 0.436831,-0.4368303 0.530437,-0.6240446 1.591312,-2.8394003 -1.903334,3.5882533 -0.0936,0.4992349 0.0936,0.405629 0.28082,0.218415 0.374427,0.0312 0.499235,-0.187213 0.530437,-0.343223 0.686449,-0.6552464 0.592842,-0.8736625 0.405629,-0.7800548 0.280819,-0.8736614 0.124809,-0.4992361 -0.0936,-0.5304367"/><path d="m 40.340522,4.9409228 -0.187213,0.093613 0.0312,0.2808198 0.249618,-0.031204 0.124809,-0.218415 -0.218415,-0.1248096 m -0.686449,1.4353022 -1.56011,2.933007 -0.28082,0.6240445 -0.124809,0.4056283 0.0936,0.405629 0.28082,0.312023 0.655246,0.0312 0.686448,-0.343225 0.84246,-0.71765 0.405628,-0.4992361 0.499236,-0.71765"/><path d="m 43.023912,5.3153493 -0.499236,1.0296728 h 1.497706 -2.901805 1.404099 l -1.622514,2.9018052 -0.28082,0.7800557 -0.0312,0.71765 0.624043,0.436831 0.717651,-0.156011 0.811258,-0.468033 0.873661,-0.9672681 0.56164,-0.7800547"/><path d="m 46.67457,4.1296663 -3.744264,6.9268897 1.622515,-2.7145919 0.71765,-0.6864493 0.748853,-0.7800548 0.530438,-0.4368313 0.655246,-0.1560102 0.499235,0.062408 0.312023,0.3120229 v 0.5928415 l -0.312023,0.6240445 -0.780055,1.3728963 -0.436831,0.9048643 v 0.343225 l 0.0936,0.405628 0.436831,0.218415 0.499235,-0.06241 0.686449,-0.312023 0.936067,-0.9048635 0.780054,-1.0296728"/><path d="m 55.067963,6.1266071 0.0312,-0.5928416 0.28082,-0.5616397 0.592842,-0.3120228 0.592841,-0.031204 0.624045,0.1872132 0.686448,0.062408 0.811258,-0.062408 0.717651,-0.249618 -0.68645,0.3432247 -0.686448,0.6552463 -0.561639,0.8736614 -0.56164,0.9672692 -0.436831,0.8424595 -0.530437,0.8424596 -0.499236,0.9360661 -0.71765,1.123279 -0.592843,0.71765 -0.530437,0.592843 -0.748853,0.468033 -0.717651,0.218415 -0.624044,0.0312 -0.530437,-0.249617 -0.0312,-0.655246 0.405629,-0.499236 0.655247,-0.343224 1.060874,-0.249618 0.811258,-0.0936 1.497706,-0.0936 1.154481,-0.28082 0.84246,-0.436831 0.717651,-0.6864483 0.592841,-0.7800548"/><path d="M 62.150865,8.0923461 62.400482,7.3746949 V 6.657045 l -0.343223,-0.3432247 -0.904865,0.031204 -1.123279,0.6864493 -0.748853,0.7488529 -0.468033,0.9048632 -0.374426,0.6552464 -0.218415,0.9360659 0.06241,0.499237 0.499236,0.374426 0.811257,-0.249618 0.99847,-0.84246 0.904865,-0.9984708 0.904863,-1.3728963 0.717651,-1.248089 -1.747324,3.1202214 -0.187213,0.7176497 0.06241,0.499237 0.405629,0.374426 0.624044,-0.0936 0.780055,-0.436831 0.936066,-1.0296732 0.655246,-0.7800548"/><path d="m 65.926332,6.3762251 -1.653717,2.9018052 -0.249617,0.7800547 -0.0312,0.624045 0.218416,0.343223 0.43683,0.0936 0.655246,-0.15601 0.780056,-0.530438 0.811257,-0.7800549 0.499236,-0.8112578 0.43683,-0.998471 0.12481,-0.8424595 0.06241,-0.3744265 -0.0936,-0.2808198"/><path d="M 72.447594,8.0923461 72.69721,7.3746949 V 6.657045 l -0.343223,-0.3432247 -0.904864,0.031204 -1.12328,0.6864493 -0.748853,0.7488529 -0.468033,0.9048632 -0.374426,0.6552464 -0.218415,0.9360659 0.06241,0.499237 0.499236,0.374426 0.811257,-0.249618 0.998471,-0.84246 0.904864,-0.9984708 0.904863,-1.3728963 0.717651,-1.248089 -1.747324,3.1202214 -0.187213,0.7176497 0.06241,0.499237 0.405629,0.374426 0.624044,-0.0936 0.780055,-0.436831 0.936066,-1.0296732 0.655246,-0.7800548"/><path d="m 75.318196,8.7475924 -0.187214,0.031204 -0.405628,0.468033 -0.156011,0.4368313 v 0.4368313 l 0.312023,0.56164 0.405628,0.405628 0.748853,0.187213 0.780055,-0.187213 0.873662,-0.405628 0.624043,-0.811258 0.187214,-0.748853 -0.0936,-0.8112577 -0.405628,-0.9360662 -0.0936,-0.8112566 0.156011,-0.9048644 0.499235,-0.6240445 0.748853,-0.4680331 h 0.624045 l 0.499235,0.1248096 0.343224,0.2808199 0.124809,0.4992349 -0.218415,0.4680331 -0.312023,0.4992349"/><path d="m 83.71159,6.8442582 0.0936,0.1560102 0.249617,-0.093601 0.06241,-0.218415 -0.06241,-0.2496181 -0.405628,-0.218415 -0.811258,0.1248084 -0.686448,0.4368313 -0.717651,0.6864481 -0.592842,0.9360662 -0.374426,0.748853 -0.124809,0.8112577 0.0936,0.655247 0.374427,0.405628 0.499234,0.124809 0.748853,-0.06241 0.748853,-0.343224 0.748853,-0.530437 0.686448,-0.7800564 0.56164,-0.6240434"/><path d="m 86.082957,6.3450221 -2.527379,4.6803309 1.372898,-2.3713672 0.842459,-0.8736614 0.624043,-0.6864493 0.56164,-0.5616397 0.530438,-0.2496169 0.405628,-0.062408 0.187214,0.1560115 0.06241,0.2496168 -0.0936,0.3432247 -0.28082,0.093601 -0.0936,-0.093601 0.187213,-0.2184151"/><path d="m 90.326456,4.9409228 -0.187213,0.093613 0.0312,0.2808198 0.249618,-0.031204 0.124809,-0.218415 -0.218415,-0.1248096 m -0.686448,1.4353022 -1.560111,2.933007 -0.28082,0.6240445 -0.124808,0.4056283 0.0936,0.405629 0.28082,0.312023 0.655247,0.0312 0.686448,-0.343225 0.842459,-0.71765 0.405629,-0.4992361 0.499236,-0.71765"/><path d="m 88.797549,13.209508 2.527378,-4.6803307 0.84246,-0.7488529 0.99847,-1.0608758 0.624044,-0.4056283 0.592842,-0.062408 0.436831,0.2184162 0.156012,0.6864481 -0.312023,0.8424596 -0.624044,1.216886 -0.468033,0.6552464 -0.780056,0.7176504 -0.592841,0.312022 -0.499235,0.156011 -0.374427,0.06241 -0.374426,-0.0312 -0.218416,-0.312022 v -0.468033 l 0.0936,-0.6240441 0.530438,-1.216886 1.185685,-2.1841541"/><path d="m 97.877391,5.3153493 -0.499236,1.0296728 h 1.497706 -2.901806 1.4041 l -1.622515,2.9018052 -0.28082,0.7800557 -0.0312,0.71765 0.624044,0.436831 0.717651,-0.156011 0.811258,-0.468033 0.873661,-0.9672681 0.56164,-0.7800547"/><path d="m 98.938267,10.962949 -0.218417,-0.0936 v -0.187214 l 0.249618,-0.0936 0.124809,0.15601 -0.0312,0.312023 -0.0936,0.312021 -0.28082,0.28082 -0.218415,0.124809 -0.218416,0.0312"/><path d="m 102.80734,6.4386287 0.56164,-0.7176499 0.62405,-0.748853 0.71765,-0.4056294 h 0.40563 l 0.31201,0.2808198 -0.0624,0.6240445 -0.24961,0.6864482 -2.65219,4.8675441 2.68338,-4.6803309 0.62405,-0.7176499 0.53044,-0.6240446 0.46804,-0.3432246 0.53043,-0.093601 0.49923,0.062408 0.31203,0.3432247 0.0936,0.4680331 -0.24962,0.7488529 -2.65218,4.8987453 2.46496,-4.4619152 0.59285,-0.5928415 0.53043,-0.6552463 0.37443,-0.4056283 0.43683,-0.3120229 0.53044,-0.1248084 0.43683,0.062408 0.24963,0.2496169 0.0936,0.5928427 -0.43683,0.9984698 -1.49771,2.4649751 -0.46803,1.1232791 -0.1248,0.499235 0.0936,0.374427 0.37442,0.312021 0.46804,0.0312 0.59283,-0.249618 0.59285,-0.530438 0.71765,-0.811256 0.65525,-0.8424596"/><path d="m 115.38183,8.0923461 0.24961,-0.7176512 V 6.657045 l -0.34322,-0.3432247 -0.90486,0.031204 -1.12328,0.6864493 -0.74886,0.7488529 -0.46804,0.9048632 -0.37442,0.6552464 -0.21841,0.9360659 0.0624,0.499237 0.49924,0.374426 0.81125,-0.249618 0.99847,-0.84246 0.90487,-0.9984708 0.90486,-1.3728963 0.71765,-1.248089 -1.74732,3.1202214 -0.18721,0.7176497 0.0624,0.499237 0.40563,0.374426 0.62405,-0.0936 0.78006,-0.436831 0.93607,-1.0296732 0.65524,-0.7800548"/><path d="m 115.47544,13.209508 2.52738,-4.6803307 0.84247,-0.7488529 0.99846,-1.0608758 0.62405,-0.4056283 0.59284,-0.062408 0.43683,0.2184162 0.15602,0.6864481 -0.31203,0.8424596 -0.62404,1.216886 -0.46804,0.6552464 -0.78006,0.7176504 -0.59284,0.312022 -0.49923,0.156011 -0.37443,0.06241 -0.37442,-0.0312 -0.21842,-0.312022 v -0.468033 l 0.0936,-0.6240441 0.53044,-1.216886 1.18569,-2.1841541"/><path d="m 125.24173,4.1296663 -2.52737,4.7427345 -0.37443,0.6552463 -0.28083,0.6552459 v 0.374427 l 0.24963,0.405629 0.65525,0.187213 1.02967,-0.405629 1.06087,-0.8736612 0.74885,-1.1232794 0.56164,-1.2168861 0.0624,-0.7176511 -0.24962,-0.4992349 -0.49923,-0.031204 -0.65524,0.2184151 -0.59284,0.5304379 -0.68646,0.6864481 -0.87366,0.9048644"/><path d="m 128.01872,11.087758 0.68645,-0.156012 0.96727,-0.592841 0.93607,-1.0920777 0.56164,-1.1856831 0.21841,-0.9360661 -0.18721,-0.6240446 -0.46804,-0.2808198 h -0.65524 l -0.81126,0.4368313 -0.68645,0.5928415 -0.59284,0.7176511 -0.37443,0.8112566 -0.24962,0.7176511 -0.1248,0.7488527 0.15601,0.56164 0.24962,0.218415 0.37442,0.06241"/><path d="m 132.13742,10.55732 h 0.24962 l 0.0311,-0.249617 -0.21841,-0.06241 -0.24962,0.312021 0.0312,0.343225 0.49924,0.28082 0.68644,-0.218415 0.68646,-0.686449 0.74885,-0.9672684 0.84245,-1.4040993 0.62405,-0.7800548 0.53044,-0.5304379 0.56164,-0.3120216 0.40563,-0.062408 0.31202,0.1248084 0.156,0.1248097 0.0313,0.2496168 -0.0936,0.2496181 -0.15601,0.062408 -0.12482,-0.031204 0.0624,-0.218415 0.1248,0.031204 m -5.7412,1.9033354 0.93607,-1.216886 0.56164,-0.6864494 0.56164,-0.468033 0.56164,-0.1248085 0.34322,0.2184151 0.15601,0.4056294 -0.0936,0.9048632 -0.46804,1.7161222 -0.0936,0.8736616 0.15601,0.530437 0.65524,0.249617 0.59284,-0.124808 0.74885,-0.312022 0.84247,-0.7488526 0.56164,-0.6552463 0.31202,-0.4680331"/><path d="m 138.44027,10.962949 -0.21842,-0.0936 v -0.187214 l 0.24961,-0.0936 0.12482,0.15601 -0.0312,0.312023 -0.0936,0.312021 -0.28081,0.28082 -0.21842,0.124809 -0.21842,0.0312"/><path d="m 143.71343,11.181364 0.78006,-0.187213 0.78006,-0.468033 0.74885,-0.6240444 0.68644,-0.8424596 0.62405,-0.9048631 0.37443,-0.9048644 0.28081,-0.8112578 0.0624,-0.7488529 -0.0624,-0.5928415 -0.37442,-0.4056283 -0.62404,-0.1248096 -0.68646,0.062408 -0.68644,0.3120217 -0.68645,0.4056294 -0.93606,0.9360662 -0.56164,0.7800548 -0.49925,0.8736614 -0.28081,0.7488529 -0.18721,0.9048644 v 0.5928418 l 0.24962,0.686449 0.49923,0.312022 h 0.49923"/><path d="m 149.14263,8.7475924 -0.18722,0.031204 -0.40563,0.468033 -0.15601,0.4368313 v 0.4368313 l 0.31202,0.56164 0.40563,0.405628 0.74886,0.187213 0.78005,-0.187213 0.87366,-0.405628 0.62405,-0.811258 0.18721,-0.748853 -0.0936,-0.8112577 -0.40563,-0.9360662 -0.0936,-0.8112566 0.15601,-0.9048644 0.49923,-0.6240445 0.74885,-0.4680331 h 0.62405 l 0.49923,0.1248096 0.34324,0.2808199 0.1248,0.4992349 -0.21842,0.4680331 -0.31201,0.4992349"/><path d="m 154.69662,6.4386287 0.56164,-0.7176499 0.62403,-0.748853 0.71766,-0.4056294 h 0.40562 l 0.31203,0.2808198 -0.0624,0.6240445 -0.24962,0.6864482 -2.65218,4.8675441 2.68338,-4.6803309 0.62405,-0.7176499 0.53043,-0.6240446 0.46804,-0.3432246 0.53044,-0.093601 0.49923,0.062408 0.31202,0.3432247 0.0936,0.4680331 -0.24962,0.7488529 -2.65219,4.8987453 2.46498,-4.4619152 0.59284,-0.5928415 0.53044,-0.6552463 0.37442,-0.4056283 0.43684,-0.3120229 0.53043,-0.1248084 0.43684,0.062408 0.24961,0.2496169 0.0936,0.5928427 -0.43684,0.9984698 -1.49771,2.4649751 -0.46802,1.1232791 -0.12482,0.499235 0.0936,0.374427 0.37442,0.312021 0.46803,0.0312 0.59284,-0.249618 0.59285,-0.530438 0.71765,-0.811256 0.65525,-0.8424596"/><path d="m 169.14324,8.0923461 0.24961,-0.7176512 V 6.657045 l -0.34322,-0.3432247 -0.90486,0.031204 -1.12328,0.6864493 -0.74886,0.7488529 -0.46804,0.9048632 -0.37442,0.6552464 -0.21841,0.9360659 0.0624,0.499237 0.49924,0.374426 0.81125,-0.249618 0.99847,-0.84246 0.90487,-0.9984708 0.90486,-1.3728963 0.71765,-1.248089 -1.74732,3.1202214 -0.18721,0.7176497 0.0624,0.499237 0.40563,0.374426 0.62405,-0.0936 0.78006,-0.436831 0.93606,-1.0296732 0.65524,-0.7800548"/><path d="m 172.9499,6.3450221 -2.58978,4.7115339 1.37289,-2.2777618 0.68646,-0.8112566 0.59283,-0.6864493 0.65525,-0.5928415 0.68644,-0.4056283 h 0.59285 l 0.34322,0.1560102 0.21842,0.4680331 -0.24962,0.780056 -0.65524,1.1544812 -0.46804,0.8424596 -0.21841,0.6552464 0.12481,0.468033 0.34322,0.28082 h 0.59284 l 0.65524,-0.343225 0.74886,-0.686448 0.53044,-0.6240445 0.49923,-0.6240433"/><path d="m 180.90646,7.873931 0.12481,-0.7488529 -0.0936,-0.6240446 -0.34322,-0.2808198 -0.71765,0.093601 -0.90486,0.4992349 -0.68646,0.6864493 -0.56164,0.6864482 -0.46803,0.8112577 -0.28082,0.8424596 -0.0624,0.6864476 0.18721,0.436832 0.49924,0.187213 0.81126,-0.343225 0.87366,-0.748853 0.74885,-0.8736609 1.18569,-1.7785258 1.77852,-3.2762316 -2.58979,4.7427345 -0.28082,0.6240445 -0.21841,0.4056283 -0.0312,0.530438 0.18722,0.468033 0.46802,0.218415 0.59285,-0.0936 0.78005,-0.530437 0.68645,-0.7488526 0.71765,-0.9360661"/><path d="m 191.01598,7.0314714 0.46803,-0.4680331 0.53044,-0.5616397 0.34323,-0.6552463 V 4.8785192 l -0.15602,-0.2808198 -0.46803,-0.031204 -0.71765,0.3120228 -0.59284,0.5928416 -0.53044,0.8112577 -0.62404,1.0296728 -0.53044,0.9360662 -0.71765,1.1544812 -0.46804,0.6864483 -0.46802,0.530438 -0.43684,0.343224 -0.74885,0.249617 -0.62405,0.06241 -0.68644,-0.249618 0.1248,-0.43683 0.43684,-0.187213 h 0.53043 l 0.65525,0.15601 0.87366,0.343225 0.81126,0.249618 0.93607,0.124808 0.74885,-0.156011 0.84246,-0.374426 0.78005,-0.686449 0.49923,-0.5304373 0.49925,-0.71765"/><path d="m 192.7009,11.087758 0.68645,-0.156012 0.96727,-0.592841 0.93606,-1.0920777 0.56164,-1.1856831 0.21842,-0.9360661 -0.18721,-0.6240446 -0.46804,-0.2808198 h -0.65524 l -0.81126,0.4368313 -0.68645,0.5928415 -0.59284,0.7176511 -0.37443,0.8112566 -0.24962,0.7176511 -0.1248,0.7488527 0.15601,0.56164 0.24962,0.218415 0.37442,0.06241"/><path d="m 198.3173,6.3762251 -1.65371,2.9018052 -0.24963,0.7800547 -0.0312,0.624045 0.21842,0.343223 0.43683,0.0936 0.65525,-0.15601 0.78005,-0.530438 0.81126,-0.7800549 0.49924,-0.8112578 0.43683,-0.998471 0.1248,-0.8424595 0.0624,-0.3744265 -0.0936,-0.2808198"/><path d="m 201.65593,8.8099972 0.90487,-0.2808199 0.96727,-0.249618 0.65524,-0.3120217 0.53043,-0.4680331 0.21842,-0.6552463 -0.18721,-0.4992361 -0.78006,-0.1560102 -1.02967,0.5304367 -0.90486,1.0608758 -0.56164,1.0920764 -0.31203,0.998471 0.0936,0.7488532 0.49923,0.468033 0.81126,0.0312 0.99846,-0.343223 0.96727,-0.748853 0.53044,-0.5616401 0.49924,-0.6552464"/><path d="m 205.61862,10.588523 -0.24962,0.0936 v 0.187213 l 0.21841,0.0936 0.15601,-0.218417 -0.1248,-0.15601"/></g></svg>