<svg viewBox="0 0 672 800" xmlns="http://www.w3.org/2000/svg" fill-rule="evenodd" clip-rule="evenodd">
  <path d="M164.635 663.967l10.26-11.298 10.757-2.86 10.249-8.803 10.11-9.765 10.411-2.653 9.905-10.339 9.916-8.679 10.021-3.925 9.824-6.338 9.556-12.029 9.742-3.212 9.572-5.79 9.429-8.609 9.373-7.621 9.298-7.868 9.233-7.273 9.15-10.228 9.083.672 9.002-7.976 8.932-7.526 8.863-7.08 8.816-8.505 8.747-7.696 8.637-5.604 8.555-5.419 8.642-10.567 8.416-5.091 8.648-13.193 8.185-2.311 8.053-1.29 8.43-11.29 7.91-1.511 8.234-9.249 7.87-3.497 7.924-5.685 7.855-5.505 7.776-5.185 7.803-6.511 7.685-5.534 7.699-6.503 7.642-6.403 7.644-7.037 7.704-8.3 7.497-6.325 7.311-4.758 7.215-4.287 7.276-5.548 7.306-6.347 7.253-6.279 7.263-6.803 7.187-6.465 6.989-4.97 7.056-6.034 7.177-7.5 6.814-4.586 6.86-5.408 6.561-3.234 6.884-6.351 7.008-7.65M152.918 656.105l10.319-10.524 10.827-2.403 10.172-10.093 10.434-4.659 10.193-6.822 9.779-12.851 10.088-5.492 10.072-3.564 9.817-6.941 9.644-9.34 9.642-7.269 9.537-8.225 9.553-4.298 9.387-7.712 9.319-7.373 9.212-10.408 9.217-2.476 9.104-4.037 9.013-7.51 8.951-8.962 8.903-9.44 8.817-6.532 8.727-5.363 8.669-6.29 8.583-5.432 8.752-14.846 8.494-6.349 8.58-10.991 8.075 2.215 8.207-4.215 8.171-5.14 8.252-8.378 7.978-3.699 8-5.556 7.999-6.693 7.873-5.384 7.779-4.876 7.822-6.475 7.731-5.882 7.669-5.784 7.766-7.866 7.534-5.343 7.838-9.924 7.505-6.15 7.242-3.584 7.244-4.311 7.298-5.543 7.279-5.881 7.462-8.298 7.295-6.932 7.223-6.591 7.077-5.583 6.962-4.871 7.045-6.126 7.212-8.021 6.658-3.306 6.508-2.478 6.916-6.457 6.849-6.201" fill="none" stroke="#000"/>
  <path d="M141.397 649.839l10.225-11.674 10.615-5.75 10.497-5.806 10.391-5.72 10.177-7.395 9.865-11.26 10.18-4.247 9.856-8.537 9.844-7.142 9.843-4.897 9.572-9.712 9.734-2.583 9.41-10.008 9.406-7.916 9.4-4.508 9.257-7.547 9.214-4.995 9.118-5.895 9.043-5.26L336 508.786l8.911-10.037 8.873-10.913 8.725-1.172 8.774-11.634 8.518.667 8.561-6.621 8.699-14.883 8.429-5.508 8.228-1.298 8.279-5.478 8.225-5.847 8.228-7.456 8.091-5.532 7.908-3.016 8.04-7.121 7.855-4.61 7.972-7.849 7.682-3.704 7.718-5.357 7.916-9.29 7.607-5.241 7.507-4.602 7.71-8.174 7.534-6.363 7.403-5.265 7.36-5.414 7.276-4.997 7.379-6.793 7.499-8.588 7.389-7.736 6.984-3.833 7.099-5.578 7.056-5.593 6.916-4.645 7.094-6.806 6.929-5.642 6.699-3.893 6.865-5.808 6.771-5.347M129.505 638.592l10.556-7.97 10.26-10.464 10.943-.554 10.419-5.666 10.104-8.739 10.031-8.615 10.037-7.155 9.76-10.709 9.914-6.376 10.018-1.949 9.54-10.596 9.663-5.723 9.494-8.153 9.524-4.564 9.338-8.15 9.303-6.628 9.228-6.347 9.169-4.835 9.093-3.17 8.983-5.609 8.898-12.193 8.854-7.032 8.79-7.371 8.822-16.751 8.588.884 8.58-5.596 8.599-10.032 8.322.059 8.365-5.489 8.276-4.779 8.242-5.895 8.196-6.4 8.107-5.526 8.039-5.484 8.002-5.989 7.914-5.395 7.897-6.174 7.825-5.881 7.892-7.992 7.763-6.529 7.68-6.024 7.486-3.889 7.763-8.76 7.44-4.812 7.505-6.37 7.392-5.516 7.338-5.476 7.285-5.437 7.741-11.309 7.008-3.22 7.166-5.586 7.174-6.169 7.083-5.669 6.973-4.962 7.021-5.916 7.048-6.575 6.765-4.263 6.747-4.527 6.755-4.997" fill="none" stroke="#000"/>
  <path d="M117.748 628.475l10.263-11.524 10.679-5.911 11.233 2.344 10.182-9.037 10.037-9.972 10.263-5.538 10.053-7.217 9.903-8.325 9.972-5.502 9.779-7.462 9.793-5.306 9.521-9.666 9.617-5.306 9.462-7.228 9.322-9.43 9.421-3.139 9.255-6.021 9.201-4.401 9.123-3.212 8.994-6.822 8.906-9.916 8.862-8.161 8.814-12.862 8.76-6.798 8.709-8.647 8.543.64 8.505-4.183 8.445-5.137 8.403-6.502 8.37-7.559 8.261-5.577 8.206-5.89 8.077-4.032 8.067-5.585 8.037-6.363 7.911-4.811 7.927-6.411 7.897-6.911 7.879-7.438 7.766-6.247 7.674-5.58 7.58-4.94 7.766-8.675 7.547-5.967 7.32-3.411 7.427-5.755 7.378-5.715 7.325-5.674 7.535-8.844 7.303-6.4 7.115-4.774 7.25-6.806 7.115-5.773 6.943-4.395 7.075-6.261 7.021-6.115 6.911-5.438 6.687-3.693 6.653-3.822" fill="none" stroke="#000"/>
  <path d="M106.012 618.188l10.413-10.027 11.096-1.618 11.045-.422 9.933-12.217 10.023-10.383 10.274-5.992 10.15-6.303 9.956-7.847 9.859-8.123 10.228.18 9.744-6.62 9.51-9.93 9.521-8.228 9.497-7.037 9.33-9.698 9.54-.602 9.298-5.245 9.228-4.386 9.101-6.492 9.032-6.048 8.9-11.975 8.897-7.086 8.822-10.668 8.776-3.79 8.693-3.976 8.632-6.852 8.582-8.029 8.411-.072 8.459-8.481 8.322-4.397 8.252-4.438 8.255-7.15 8.107-4.081 8.126-6.779 8.051-6.188 7.948-5.024 7.897-5.308 7.911-6.874 7.9-7.647 7.838-7.303 7.723-5.978 7.486-2.871 7.844-9.83 7.497-4.822 7.435-4.734 7.397-4.965 7.384-5.545 7.309-5.188 7.405-7.083 7.537-9.225 7.064-3.801 7.26-6.776 7.065-4.989 7.031-5.118 7.107-6.446 7.038-6.112 6.98-5.941 6.742-3.957 6.569-2.731" fill="none" stroke="#000"/>
  <path d="M94.642 611.035l11.292-1.207 10.779-4.935 10.566-5.938 9.478-17.477 10.691-2.412 9.83-11.929 10.332-4.244 9.994-7.537 10.285-1.608 9.625-10.577 10.112-.583 9.473-10.704 9.362-12.01 9.661-3.841 9.561-3.742 9.349-7.11 9.241-8.152 9.347-1.575 9.211-2.645 9.019-7.599 8.873-13.161 8.9-8.61 8.851-7.857 8.812-1.991 8.714-7.422 8.645-4.336 8.574-5.989 8.494-4.472 8.443-6.422 8.379-6.099 8.271-3.903 8.22-5.021 8.161-5.226 8.168-7.677 8.081-6.394 7.934-3.922 7.895-4.701 7.935-7.083 7.881-6.986 7.855-7.403 7.741-6.11 7.61-4.545 7.774-8.524 7.636-6.795 7.459-4.669 7.279-2.742 7.411-5.65 7.406-6.231 7.268-5.008 7.311-6.206 7.242-5.901 7.182-5.671 7.199-6.438 7.166-6.508 7.096-6.147 7.005-5.575 6.908-5.008 6.922-5.61 6.634-3.075" fill="none" stroke="#000"/>
  <path d="M83.887 608.946l10.956-4.567 10.629-6.604 10.488-7 9.742-14.214 10.222-8.214 10.817.201 9.776-11.432 9.878-9.289 10.255-2.664 10.15-2.352 9.695-7.997 9.484-10.545 9.351-12.166 9.771-2.204 9.465-6.72 9.44-5.341 9.252-8.306 9.559 3.986 9.139-5.962 9.021-7.946 8.959-7.781 8.857-10.518 8.781-13.61 8.863-1.384 8.73-7.908 8.677-2.013 8.588-3.791 8.524-6.429 8.456-6.164 8.376-4.655 8.328-6.293 8.271-6.22 8.158-4.035 8.163-6.981 8.072-5.539 7.992-4.981 7.9-4.124 7.935-6.803 7.897-7.059 7.833-6.688 7.731-5.588 7.838-8.803 7.687-6.588 7.487-3.782 7.445-4.129 7.497-5.927 7.414-5.376 7.408-6.064 7.362-6.051 7.188-4.217 7.255-5.868 7.231-6.099 7.209-6.382 7.179-6.502 7.107-6.118 6.997-5.279 6.949-5.247 6.876-4.916 6.806-4.645" fill="none" stroke="#000"/>
  <path d="M72.823 603.202l10.723-6.897 10.499-8.043 10.593-6.172 10.156-9.717 9.859-12.214 10.556-3.513 10.58-1.648 10.042-6.905 9.744-9.83 10.148-2.952 9.797-6.564 9.446-11.15 9.658-6.389 9.419-9.448 9.521-5.995 9.346-8.174 9.709 2.973 9.255-5.825 9.182-5.553 9.032-8.099 9.074-3.726 8.817-12.257 8.83-9.757 8.825-6.495 8.797-1.795 8.683-4.96 8.609-5.663 8.543-8.134 8.467-3.306 8.435-9.113 8.322-3.139 8.274-5.357 8.193-4.301 8.147-5.578 8.061-4.494 8.035-5.986 7.948-4.933 7.986-7.967 7.908-6.914 7.806-5.596 7.916-9.435 7.927-10.378 7.317 1.701 7.578-5.244 7.515-5.045 7.556-6.704 7.408-4.968 7.365-5.091 7.374-5.97 7.319-5.873 7.26-5.65 7.204-5.535 7.352-8.061 7.155-5.938 7.124-6.088 7.058-5.782 6.812-3.349 6.897-4.944 6.825-4.618" fill="none" stroke="#000"/>
  <path d="M61.222 592.259l11.093-3.903 10.457-8.534 10.614-6.204L103.461 563l10.002-10.73 10.803-1.083 10.465-3.401 9.87-9.246 9.682-10.814 10.44.489 9.599-9.803 9.621-8.556 9.781-4.669 9.244-12.666 9.838-.344 9.723-.032 9.362-5.5 9.201-7.435 9.064-9.397 9.18-4.145 9.109-3.325 8.846-10.54 8.758-12.924 8.763-11.295 8.932 4.336 8.674-8.026 8.637-5.511 8.574-2.4 8.486-6.392 8.433-7.833 8.378-7.317 8.287-3.693 8.218-4.183 8.158-4.744 8.109-5.771 8.035-4.968 8.031-7.211 7.863-3.145 7.913-6.852 7.892-7.68 7.892-8.722 7.707-5.126 7.596-3.895 7.61-5.454 7.497-4.287 7.545-6.242 7.47-5.717 7.386-5.169 7.349-5.293 7.339-5.954 7.292-5.914 7.317-6.865 7.292-7.096 7.161-5.828 7.18-6.591 6.991-4.688 6.919-4.386 6.782-3.296 6.903-5.306" fill="none" stroke="#000"/>
  <path d="M50.556 588.735l10.593-8.201 10.223-10.73 10.806-4.71 10.004-11.316 10.975-.922 10.352-5.951 10.62-1.801 9.341-15.317 10.069-6.088 10.446.091 9.561-10.209 9.478-10.663 9.822-4.397 9.402-9.812 10.072 3.336 9.529-4.22 9.145-10.33 9.36-4.285 9.128-7.843 9.161-5.196 9.134-3.457 8.854-10.08 8.693-14.945 8.87-6.134 8.852-3.046 8.76-3.295 8.642-6.527 8.534-12.886 8.562-.081 8.456-6.246 8.389-4.441 8.32-4.594 8.254-5.239 8.193-5.526 8.145-6.089 8.029-3.126 7.992-4.806 7.943-5.26 7.902-5.952 7.868-6.531 7.841-7.169 7.771-6.532 7.682-5.433 7.683-6.72 7.548-4.763 7.461-4.107 7.484-5.631 7.4-5.005 7.389-5.691 7.333-5.572 7.201-4.148 7.403-8.093 7.231-6.021 7.15-5.481 7.265-7.656 7.14-6.419 6.717-1.459 6.97-5.365 6.871-4.696" fill="none" stroke="#000"/>
  <path d="M40.153 586.59l10.637-7.722 9.236-18.873 10.972-3.556 10.491-6.785 10.739-3.462 10.628-3.306 10.368-4.747 9.585-12.333 10.266-3.803 9.687-9.599 9.908-5.911 9.441-11.158 10.018-1.919 9.526-7.814 9.983 1.108 9.408-6.782 9.303-7.32 9.277-6.454 9.187-6.741 9.172-5.433 9.177-2.999 8.883-9.175 8.774-11.187 8.779-9.749 8.87-3.433 8.72-6.948 8.632-9.07 8.655-2.551 8.524-8.306 8.499-2.005 8.408-9.12 8.341-.229 8.284-7.015 8.22-5.737 8.158-5.531 8.048-2.269 8.027-5.317 7.959-5.088 7.911-5.538 7.832-4.685 7.822-6.268 7.841-8.365 7.72-6.051 7.661-5.768 7.551-4.411 7.515-4.831 7.505-5.736 7.5-6.583 7.419-5.873 7.306-4.658 7.228-4.223 7.244-5.312 7.365-7.967 7.22-6.252 7.179-6.239 7.024-4.605 7.059-5.717 6.86-3.637 6.83-3.9" fill="none" stroke="#000"/>
  <path d="M29.326 580.405l10.645-7.671 9.445-16.768 11.215-1.567 10.566-6.029 10.255-8 10.306-6.653 10.692-1.766 10.255-4.991 10.005-6.637 9.851-7.43 9.822-6.808 9.048-15.913 10.346 2.263 9.736-4.486 9.521-6.374 9.349-7.889 9.233-8.76 9.287-6.664 9.486-.948 9.161-5.68 9.059-6.355 8.934-7.8 8.801-10.086 8.8-8.62 8.793-7.016 8.712-7.937 8.617-10.005 8.761 1.865 8.494-10.534 8.537-1.505 8.397-11.317 8.384-3.268 8.298-.059 8.236-7.129 8.166-4.621 8.091-3.878 8.05-5.774 7.968-4.266 7.91-4.691 7.874-5.736 7.822-5.698 7.846-8.411 7.72-5.669 7.69-6.223 7.607-5.319 7.564-5.473 7.513-5.489 7.419-4.513 7.454-6.301 7.4-6.126 7.279-4.701 7.209-4.32 7.333-7.298 7.193-5.607 7.102-4.854 7.314-8.701 6.863-2.605 6.908-4.011 6.876-4.244" fill="none" stroke="#000"/>
  <path d="M18.477 573.604l11.064-4.507 10.408-8.734 10.429-7.873 10.476-6.757 10.249-7.898 10.058-8.916 10.672-2.209 10.273-4.952 9.962-7.155 9.835-7.666 9.836-6.766 9.857-5.443 9.4-10.26 9.779-4.298 9.631-5.011 9.214-10.144 9.234-9.029 9.257-7.572 9.577-.191 9.226-4.938 9.08-6.368 8.953-7.76 9.045-3.637 8.812-8.051 8.768-7.728 8.747-6.292 8.529-13.12 8.744-.933 8.577-5.328 8.457-9.561 8.405-11.04 8.462 3.989 8.303-9.195 8.266-6.349 8.179.478 8.115-4.252 8.102-9.306 7.975-2.269 7.9-2.653 7.898-6.11 7.822-5.126 7.781-5.623 7.782-7.634 7.715-6.68 7.631-5.558 7.578-5.47 7.526-5.433 7.419-4.029 7.481-6.699 7.478-7.488 7.343-5.551 7.188-3.435 7.341-7.215 7.222-5.844 7.078-4.08 7.155-6.145 7.008-4.494 6.911-3.72 6.932-4.774" fill="none" stroke="#000"/>
  <path d="M8.131 569.989l10.75-6.862 10.598-7.261 10.537-6.97 10.086-9.959 10.311-7.419 10.464-5.26 10.481-4.107 10.104-6.688 9.889-8.016 9.577-10.561 10.121-3.836 9.628-8.383 9.314-11.521 9.731-5.451 9.953-1.162 9.545-5.365 9.325-7.473 8.978-12.155 9.65.355 9.058-8.548 9.384-.65 8.992-6.946 8.969-5.9 8.675-11.841 8.889-4.69 8.808-4.874 8.68-6.846 8.451-14.082 8.639-4.226 8.454-10.808 8.537-2.062 8.483 1.419 8.304-9.79 8.276-7.741 8.228 2.271 8.145-5.499 8.069-3.393 8.01-4.368 7.946-4.384 7.9-5.403 7.852-5.849 7.789-5.378 7.739-5.556 7.693-5.731 7.648-5.804 7.669-8.072 7.534-5.188 7.459-4.642 7.446-5.545 7.427-6.174 7.446-7.554 7.169-2.556 7.429-8.835 7.134-3.874 7.051-3.311 7.185-6.519 7.015-4.389 7.022-5.151 6.991-5.381" fill="none" stroke="#000"/>
  <path d="M-2.855 561.323l10.656-7.666 10.51-8.064 10.738-5.607 10.626-5.669 10.558-5.331 10.242-7.179 10.168-7.035 10.22-5.736 9.749-9.44 9.704-9.244 10.088-4.441 9.596-8.849 10.01-3.217 9.701-5.677 9.408-8.403 9.489-6.443 9.529-4.688 8.986-11.776 9.72.943 9.322-3.809 9.107-6.179 9.01-6.685 8.946-6.613 8.789-8.833 8.817-6.819 8.803-5.389 8.435-15.118 8.457-14.217 8.658-5.37 8.652-2.352 8.615.567 8.465-2.731 8.378-3.089 8.282-5.87 8.233-3.376 8.159-3.89 8.099-7.765 8.023-1.729 7.97-4.922 7.908-4.857 7.863-5.602 7.803-5.292 7.814-8.484 7.768-8.069 7.54-.637 7.583-4.93 7.661-8.937 7.437-3.409 7.538-7.679 7.402-5.159 7.355-5.204 7.255-4.021 7.292-5.932 7.172-4.358 7.187-5.623 7.116-5.061 7.117-5.871 6.989-4.441 7.078-6.542" fill="none" stroke="#000"/>
  <path d="M-13.768 552.867l10.706-7.39 11.134-3.618 10.483-7.529 10.161-9.349 10.561-5.534 10.679-3.669 10.056-8.067 9.954-8.32 10.142-5.832 10.005-6.261 9.854-6.913 9.37-11.263 9.655-7.594 10.129-1.064 9.257-10.413 9.699-4.011 9.666-3.134 9.515-3.855 9.373-4.594 9.177-6.41 9.15-5.643 9.037-6.37 8.913-7.432 8.833-7.935 8.793-7.64 8.585-11.496 8.682-7.962 8.39-15.682 8.617-7.591 8.779 1.301 8.61-1.5 8.494-2.747 8.36-6.588 8.346-2.763 8.282-.965 8.142-12.115 8.147 2.182 8.048-4.005 7.981-3.215 7.929-5.609 7.876-5.599 7.83-6.312 7.82-8.532 7.832-10.975 7.476 4.207 7.609-5.384 7.624-7.672 7.542-6.244 7.492-6.021 7.48-6.916 7.371-5.121 7.214-2.505 7.269-5.134 7.222-5.099 7.304-7.715 7.091-4.212 7.115-5.553 7.075-5.546 6.98-4.669" fill="none" stroke="#000"/>
  <path d="M-25.004 542.007l11.102-4.868 10.881-5.594 10.426-8.107 10.236-8.905 11.43 1.005 10.467-5.47 10.029-8.303 9.744-10.147 10.185-5.615 9.985-6.583 10.043-5.204 9.319-11.728 9.827-5.771 9.567-7.755 9.827-3.844 9.865-2.153 9.744-2.244 9.422-5.242 9.255-6.475 9.257-5.32 9.112-6.381 9.048-6.333 8.914-7.586 8.846-7.704 8.749-8.652 8.553-12.153 8.656-8.841 8.572-9.994 8.526-10.227 8.723-2.113 8.577-4.36 8.61.532 8.462-1.941 8.405-.04 8.239-6.04 8.144-10.33 8.161-2.309 8.088-.634 8.002-4.887 7.946-5.333 7.911-8.072 7.86-7.112 7.763-2.742 7.687-2.317 7.672-5.366 7.623-5.381 7.572-5.293 7.521-5.284 7.551-7.908 7.604-10.677 7.277-1.839 7.362-5.8 7.263-4.495 7.158-3.163 7.223-5.836 7.209-6.379 7.002-3.072 7.226-8.263 6.956-3.933" fill="none" stroke="#000"/>
  <path d="M-34.506 542.139l10.704-7.381 10.59-7.522 9.519-14.466 10.59-6.454 11.094-1.893 10.33-6.808 10.633-3.605 9.863-9.166 10.429-3.591 9.83-8.037 9.922-6.489 9.693-7.93 9.641-7.763 10.18-1.134 9.247-10.354 10.058-.108 9.634-3.854 9.314-6.817 9.29-6.185 9.365-4.005 9.082-6.981 9.091-5.798 8.957-6.887 8.808-8.437 8.768-8.255 8.462-13.859 8.852-4.395 8.505-11.309 8.577-8.462 8.736-2.15 8.58-4.502 8.414-8.215 8.529-.978 8.424-1.68 8.333-1.963 8.152-10.026 8.137-8.185 8.161 1.957 8.05-.277 7.962-6.462 7.911-5.397 7.868-7.298 7.776-1.936 7.739-4.728 7.669-3.892 7.633-5.325 7.586-5.293 7.532-5.255 7.567-8.357 7.588-10.297 7.373-4.048 7.301-3.541 7.429-8.529 7.201-3.419 7.113-2.626 7.088-3.422 7.244-7.822 6.954-2.569 7.018-4.885" fill="none" stroke="#000"/>
  <path d="M-44.863 536.228l10.712-7.333 10.569-7.645 10.4-8.214 10.938-3.804 9.281-15.104 10.465-5.988 10.647-3.777 10.873-.965 10.206-5.484 9.895-7.373 9.588-9.518 9.848-6.451 9.825-5.868 10.145-1.672 9.478-7.623 9.649-4.89 9.559-4.959 9.373-6.166 9.311-6.038 9.266-5.601 9.131-6.47 9.093-5.981 9.086-4.946 8.811-8.4 8.604-11.284 8.822-6.376 8.664-8.457 8.666-7.198 8.352-13.854 8.738-2.809 8.516-7.091 8.728 2.019 8.502-2.35 8.405-2.927 8.277-5.645 8.069-14.827 8.244-1.459 8.209 3.483 8.043-4.741 7.975-6.212 7.927-5.422 7.87-4.629 7.812-4.757 7.747-3.492 7.687-3.731 7.653-5.591 7.596-5.341 7.543-4.857 7.524-6.519 7.456-5.424 7.462-7.295 7.397-6.306 7.5-10.65 7.276-4.93 7.019.605 7.126-3.82 7.096-4.344 7.309-9.967 6.862-1.148" fill="none" stroke="#000"/>
  <path d="M-55.381 528.986l10.897-6.201 10.209-9.994 11.317-2.131 10.456-7.118 10.139-8.763 9.475-13.147 10.615-4.158 11.239 1.674 10.058-6.709 9.465-11.08 10.644-.22 8.994-14.169 9.631-7.905 10.344-.105 9.725-5.175 9.658-4.964 9.223-8.932 9.303-7.347 9.768-.658 9.163-7.115 9.207-5.6 9.107-5.972 9.037-5.981 8.978-5.774 8.537-12.292 8.693-8.938 8.798-5.962 8.623-8.349 8.615-7.419 8.945 2.237 8.521-6.156 8.575-2.803 8.408-5.747 8.322-6.634 8.282-6.129 8.204-7.287 8.217-3.626 8.196-.245 8.042-6.139 7.981-7.422 7.959-2.935 7.892-3.365 7.827-6.043 7.771-3.89 7.699-2.341 7.658-5.268 7.618-5.954 7.553-4.747 7.521-5.723 7.473-5.634 7.451-6.682 7.368-5.062 7.443-9.179 7.429-9.521 7.029 1.371 7.148-3.874 7.188-6.185 7.002-2.736 6.916-2.035" fill="none" stroke="#000"/>
  <path d="M-65.966 521.041l11.018-5.554 10.747-6.553 11.045-3.973 10.464-7.072 10.384-7.018 9.523-12.58 10.666-3.785 10.733-2.419 9.887-8.161 10.402-3.32 10.08-5.136 8.903-14.774 10.104-3.561 9.669-6.747 9.833-4.347 9.835-3.333 9.223-8.945 9.529-4.831 9.475-4.43 9.195-6.881 9.191-6.061 9.437-1.624 8.914-7.822 9.015-5.325 8.855-6.822 8.684-8.701 8.79-5.908 8.734-5.755 8.537-8.511 8.711-3.448 8.551-5.548 8.405-7.75 8.451-5.002 8.336-6.653 8.308-5.741 8.304-3.5 8.209-4.608 8.072-8.881 8.201 2.602 7.991-6.717 7.968-3.879 7.892-6.424 7.846-4.804 7.792-6.214 7.726-.863 7.671-3.962 7.623-5.207 7.57-4.905 7.518-4.874 7.492-6.241 7.456-6.575 7.443-7.707 7.328-4.521 7.499-12.214 7.118-.269 7.083-1.344 7.056-2.301 7.056-3.849 7.241-9.47" fill="none" stroke="#000"/>
  <path d="M-76.6 512.557l10.838-6.73 10.674-7.132 11.061-4.083 11.207-2.341 10.389-6.975 10.176-7.855 9.675-10.943 10.832-1.892 10.884-.492 9.98-6.634 9.841-7.115 9.072-13.066 10.172-3.027 10.085-2.83 9.136-10.933 10.172-.153 9.134-9.712 9.354-6.771 9.486-4.475 9.714-.683 9.252-5.096 9.094-6.153 8.808-9.131 8.976-6.035 8.889-6.319 8.803-6.715 8.814-5.465 8.723-5.892 8.639-6.284 8.572-6.379 8.128-15.262 8.473-6.755 8.467-5.478 8.478-3.309 8.427-2.597 8.336-3.115 8.128-8.537 8.061-9.943 8.333 6.819 8.029-4.828 7.965-5.303 7.916-4.623 7.833-9.013 7.819-3.075 7.755-1.852 7.685-2.844 7.634-4.911 7.585-5.199 7.532-5.032 7.519-7.48 7.435-4.514 7.421-6.644 7.419-8.062 7.354-6.76 7.462-12.021 7.021 2.274 6.97 1.409 7.094-4.32 7.198-8.37" fill="none" stroke="#000"/>
  <path d="M-85.64 512.966l10.736-7.148 9.677-12.988 11.088-3.986 10.427-7.462 10.467-6.642 11.047-2.032 10.744-3.277 9.718-9.873 10.241-5.51 10.695-1.264 10.016-5.677 9.518-9.12 10.083-3.712 9.674-6.481 9.381-8.491 9.779-4.051 9.204-8.949 8.878-11.768 9.844-.876 9.91 1.196 9.153-6.354 9.091-6.255 8.945-7.309 8.954-6.357 8.895-6.287 8.816-6.489 8.769-6.282 8.738-5.747 8.61-6.881 8.639-5.255 8.376-9.387 8.478-6.29 8.247-10.531 8.365-6.589 8.529-.36 8.193-8.112 8.244-4.785 8.276-1.07 8.123-4.209 8.081-3.183 7.956-6.803 7.922-5.69 7.9-2.764 7.819-4.739 7.774-2.682 7.703-4.704 7.648-3.771 7.599-5.645 7.55-5.32 7.508-5.868 7.491-7.841 7.433-6.273 7.397-6.422 7.341-5.755 7.314-6.381 7.225-4.419 6.97 2.636 7.126-4.897 7.118-5.857" fill="none" stroke="#000"/>
  <path d="M-95.674 507.243l10.722-7.217 9.817-12.029 10.97-4.742 9.999-10.12 10.76-4.836 10.755-4.136 11.225-.156 9.787-9.322 10.446-4.043 10.432-3.36 10.195-4.328 8.758-15.174 10.714 1.277 9.685-6.416 9.639-6.118 9.465-7.04 8.846-12.386 9.394-6.58 10.115 1.774 9.607-2.368 9.104-6.951 9.046-6.906 9.074-5.763 8.946-6.543 8.905-6.222 8.844-6.183 8.765-6.413 8.739-5.823 8.658-6.139 8.567-6.749 8.521-6.516 8.478-6.234 8.416-6.408 8.163-11.128 8.492-1.893 8.064-11.859 8.33-2.873 8.247-3.282 8.271.602 8.055-4.984 7.933-8.545 7.956-4.774 7.927-2.543 7.857-2.949 7.768-5.902 7.737-2.438 7.671-2.234 7.61-7.258 7.569-6.827 7.535-7.134 7.464-3.82 7.443-6.483 7.417-7.266 7.311-3.381 7.287-4.852 7.139-.39 7.156-3.726 7.163-5.838 7.107-5.182" fill="none" stroke="#000"/>
  <path d="M-105.646 501.555l9.442-14.407 11.164-4.32 10.625-6.833 9.922-10.561 10.271-8.032 11.27-1.019 11.322.264 9.344-12.384 10.803-1.739 10.733-1.325 10.274-3.844 9.26-11.018 9.835-5.973 10.244-1.871 9.677-5.806 9.298-8.526 8.859-12.093 9.717-3.465 10.153 1.916 9.365-4.98 8.978-8.341 9.085-6.54 9.094-5.645 9.013-5.742 8.913-6.19 8.801-6.86 8.728-7.032 8.824-4.701 8.629-6.731 8.593-6.362 8.384-9.153 8.599-4.236 8.333-8.279 8.395-5.927 8.367-5.29 8.39-3.113 8.093-9.44 8.134-7.182 8.387 3.144 8.023-6.725 8.053-3.414 7.954-5.099 7.916-4.021 7.86-3.726 7.758-7.607 7.747-4.456 7.703-1.374 7.626-5.271 7.58-8.333 7.551-9.308 7.494-4.18 7.465-6.535 7.389-3.696 7.309-1.666 7.324-6.304 7.188-1.435 7.131-1.61 7.124-3.806 7.099-4.715" fill="none" stroke="#000"/>
  <path d="M-116.721 489.639l10.225-10.093 11.862-.46 11.045-4.325 9.57-12.469 10.588-5.973 11.526.602 10.418-5.634 8.925-15.077 10.983-.704 11.066.868 10.311-3.64 9.954-5.574 9.642-7.36 9.795-5.537 9.634-6.186 9.478-6.884 9.058-10.047 9.494-5.546 10.078.917 9.085-7.887 9.075-7.373 9.185-5.516 9.109-5.556 8.984-6.198 8.942-5.884 8.798-6.933 8.855-5.362 8.73-6.196 8.661-6.29 8.626-5.922 8.451-7.865 8.354-8.806 8.494-5.308 8.424-5.487 7.994-13.716 8.793 5.502 8.244-5.406 8.126-7.069 8.139-5.277 8.142-3.225 8.045-4.298 7.976-4.801 7.964-2.473 7.863-4.365 7.757-7.79 7.728-7.091 7.766 1.761 7.628-6.514 7.58-8.569 7.551-7.37 7.508-4.212 7.448-3.1 7.416-6.209 7.349-3.65 7.295-3.699 7.237-3.126 7.16-2.11 7.134-3.548 7.148-6.199" fill="none" stroke="#000"/>
  <path d="M-126.532 484.341l12.233.842 10.838-5.96 10.499-7.322 10.061-9.383 10.465-6.565 10.402-6.397 10.742-3.65 9.166-13.279 11.238.917 10.212-5.199 10.854.102 9.029-12.459 9.263-10.443 9.755-6.209 10.926 4.048 9.785-4.282 9.107-9.421 9.814-2.573 9.171-7.674 9.276-6.088 9.158-6.543 9.177-5.647 9.077-5.986 8.957-6.575 8.921-6.261 8.895-5.806 8.795-6.231 8.747-6.08 8.747-5.139 8.615-6.191 8.558-6.15 8.266-10.126 8.502-5.306 8.392-6.271 8.454-3.822 8.263-6.548 8.244-5.779 8.303-2.884 8.145-5.304 8.098-4.946 8.03-5.422 8.002-4.368 7.994-2.309 7.935-1.704 7.779-6.274 7.784-3.032 7.699-5.013 7.626-7.225 7.596-6.451 7.561-3.699 7.505-6.223 7.457-2.349 7.4-3.115 7.373-7.306 7.29-2.535 7.26-4.521 7.199-3.686 7.166-4.696 7.15-5.967" fill="none" stroke="#000"/>
  <path d="M-135.341 483.909l11.427-3.42 10.687-6.765 11.021-4.376 9.193-14.222 9.723-10.989 11.821 2.029 9.564-11.01 11.113-.779 10.719-2.47 10.182-5.339 9.769-7.601 9.547-8.693 9.043-12.024 10.91 2.624 9.997-3.452 10.107-1.742 8.833-11.641 10.053-.64 8.924-9.862 9.284-6.081 9.223-5.983 9.131-6.215 9.145-5.352 8.964-6.542 8.911-6.443 8.948-5.282 8.798-6.279 8.801-5.422 8.722-5.626 8.639-5.914 8.58-5.846 8.223-10.688 8.486-5.763 8.489-4.642 8.357-5.959 8.405-3.761 7.94-12.534 8.368-2.113 8.414.89 8.16-3.395 8.013-5.798 7.911-7.577 8.075-.1 7.916-3.172 7.779-6.59 7.809-2.742 7.706-5.013 7.64-6.511 7.607-5.526 7.564-4.914 7.518-4.594 7.47-2.414 7.413-5.109 7.36-3.645 7.317-4.686 7.274-5.228 7.217-4.209 7.198-5.97 7.132-4.384" fill="none" stroke="#000"/>
  <path d="M-143.244 487.623l9.07-15.496 10.604-7.257 12.053 1.158 9.048-14.838 9.623-11.424 10.908-3.545 11.077-1.796 11.553 1.987 10.024-6.852 9.835-7.586 9.521-9.257 10.136-4.511 9.408-9.133L.435 400.93l9.82-4.755 9.717-4.879 9.182-8.599 9.65-4.161 8.86-10.346 9.276-6.212 9.161-6.634 9.171-5.905 9.185-5.043 8.97-6.561 9.042-5.046 8.889-6.013 8.852-5.701 8.723-6.478 8.752-5.349 8.65-5.855 8.609-5.572 8.274-9.731 8.655-3.134 8.379-6.483 8.274-7.47 8.362-4.892 8.282-5.317 8.091-8.161 8.295-2.551 8.22-2.553 8.228-.455 8.004-4.591 7.898-6.18 7.935-3.171 7.849-4.046 7.781-4.491 7.718-4.989 7.655-5.798 7.605-6.185 7.585-3.836 7.532-3.809 7.472-4.804 7.427-3.257 7.374-5.212 7.327-4.296 7.279-4.712 7.236-4.938 7.201-5.661 7.148-4.647" fill="none" stroke="#000"/>
  <path d="M-153.888 477.089l9.97-10.857 12.354 1.936 10.566-6.747 10.161-8.492 9.935-9.365 11.072-2.395 10.652-4.147 10.279-5.806 10.129-6.177 9.429-10.185 9.204-11.368 10.072-5.134 10.891 1.315 10.132-3.215L.97 393.103l9.414-7.234 9.214-8.316 9.427-6.073 8.795-10.889 9.25-6.558 9.644-2.32 9.174-5.874 8.728-9.604 8.712-9.346 9.298-2.677 9.088-4.016 8.994-4.199 8.728-6.47 8.765-5.292 8.481-8.18 8.693-4.645 8.497-6.529 8.481-5.922 8.477-5.072 8.341-6.303 8.172-8.454 8.158-7.93 8.424-1.766 8.405-.465 8.293-1.099 8.088-4.199 8.018-4.435 7.919-5.647 7.882-5.269 7.848-4.548 7.817-3.726 7.717-5.459 7.702-3.876 7.59-7.266 7.589-4.599 7.521-6.381 7.51-2.624 7.454-2.263 7.384-4.747L336 177.31l7.293-3.618 7.249-5.513 7.204-4.779 7.166-5.557" fill="none" stroke="#000"/>
  <path d="M-162.53 476.28l10.214-9.424 10.605-7.067 11.088-4.04 11.039-3.693 10.177-7.838 10.623-4.86 10.279-6.29 10.072-7.021 10.021-6.86 9.125-12.037 9.529-9.212 11.008 1.124 10.437-1.866 10.032-3.929 9.814-4.831 9.161-9.117 8.633-12.876 8.849-10.97 9.712-3.499 9.15-7.54 10.23 2.577 9.18-5.841 8.196-14.609 8.814-8.437 9.322-2.745 9.359-1.382 9.115-3.048 8.696-6.903 8.757-5.529 8.433-8.8 8.62-5.804 8.728-3.489 8.209-9.951 8.704-1.983 8.489-4.065 8.343-5.403 8.263-5.824 8.481-.726 8.292-2.742 8.131-4.685 8.056-5.078 8-5.123 7.857-7.532 7.943-3.86 7.932-2.408 7.755-6.18 7.787-3.169 7.688-4.906 7.604-6.709 7.586-5.365 7.548-4.806 7.51-3.756 7.47-2.373 7.395-4.669 7.343-6.537 7.306-3.129 7.261-6.239 7.217-4.575 7.177-5.244" fill="none" stroke="#000"/>
  <path d="M-172.148 470.35l10.341-8.736 11.204-3.994 10.582-6.613 10.814-4.913 10.655-5.204 10.322-6.524 10.201-6.723 10.33-5.483 9.981-7.045 9.873-7.245 9.959-6.228 10.341-3.201 10.109-4.051 9.916-4.728 9.484-7.207 9.029-10.072 8.529-13.558 10.112-1.013 9.566-4.559 8.804-10.22 9.472-4.145 9.239-5.472 9.472-2.654 8.252-13.45 8.796-8.002 9.811 3.034 8.757-6.908 8.696-6.951 8.787-5.309 8.505-7.897 8.696-4.906 8.553-5.954 8.529-5.481 8.416-6.225 8.591-2.795 8.569-1.941 8.354-4.167 8.325-3.601 8.204-4.64 8.104-5.403 8.078-4.838 8.023-4.804 7.949-5.303 7.948-3.946 7.871-4.446 7.824-4.177 7.75-4.884 7.696-4.879 7.601-6.919 7.599-5.102 7.556-4.887 7.532-3.236 7.483-2.642 7.406-4.513 7.341-7.5 7.314-5.725 7.276-5.073 7.234-5.897 7.179-1.981" fill="none" stroke="#000"/>
  <path d="M-181.3 466.415l10.655-7.12 10.333-8.274 10.018-9.51 11.663-.594 10.596-5.529 10.327-6.481 9.89-8.465 9.558-10.002 11.134-.365 10.558-3.035 10.032-5.674 10.112-4.586 10.078-4.218 9.577-6.997 9.155-9.448 9.121-9.376 8.354-14.679 10.585 2.374 9.435-5.597 9.389-5.365 9.088-7.263 9.371-4.301 9.131-5.733 9.067-5.693 8.752-8.075 9.058-4.554 8.809-6.359 8.451-9.578 8.978-3.325 8.464-8.327 8.752-4.36 8.613-5.247 8.48-6.153 8.5-5.174 8.497-4.304 8.37-5.266 8.47-2.712 8.411-2.527 8.303-3.067 8.128-5.11 8.067-5.209 7.978-5.97 8.037-3.527 7.795-7.913 8.03-.852 7.792-5.416 7.776-4.385 7.734-4.067 7.593-7.152 7.61-5.078 7.578-4.338 7.534-3.841 7.497-2.879 7.424-4.048 7.338-7.602 7.317-6.664 7.295-3.462 7.231-9.325 7.207-1.897" fill="none" stroke="#000"/>
  <path d="M-190.783 460.636l10.028-10.077 10.153-9.188 11.05-4.368 11.024-3.935 10.534-5.933 10.336-6.497 9.287-11.827 11.821 2.75 10.384-4.674 10.33-4.411 9.505-8.89 10.072-4.956 9.771-6.317 10.233-2.763 9.236-8.863 9.241-8.461 8.822-11.11 10.207-.554 9.572-4.526 9.252-6.427 9.031-7.664 8.868-8.604 9.518-2.538 8.806-8.109 8.965-6.164 9.08-4.465 8.236-12.144 9.306-.882 8.805-5.247 8.57-7.131 8.411-8.392 8.663-4.86 8.561-5.311 8.486-5.492 8.427-5.537 8.392-5.177 8.682.029 8.274-4.956 8.338-2.949 8.336-1.734 8.082-5.048 8.03-5.018 7.98-4.906 7.752-8.86 8.021-1.669 7.839-4.572 7.733-5.959 7.844-1.312 7.604-6.916 7.548-7.567 7.653-1.96 7.547-3.79 7.535-1.688 7.424-4.65 7.33-8.043 7.312-7.389 7.316-2.739 7.242-6.47 7.214-3.363" fill="none" stroke="#000"/>
  <path d="M-200.557 453.322l10.394-8.328 10.924-5.419 10.435-7.327 9.992-9.153 10.502-6.193 9.701-9.978 11.209-1.486 11.413.357 10.771-2.513 9.932-6.72 9.292-10.12 10-5.497 11.101 2.035 9.303-8.734 8.983-10.496 9.731-5.108 9.443-6.574 9.631-4.699 9.378-5.997 9.051-7.973 9.002-7.932 9.486-3.527 9.147-5.671 8.801-8.129 8.714-8.443 9.166-3.806 8.175-12.631 9.426.051 8.503-8.494 9.037-2.279 8.72-4.874 8.195-10.209 8.693-3.852 8.602-4.142 8.198-8.523 8.717-.93 8.451-3.487 8.228-5.835 8.207-5.347 8.647 2.9 8.056-5.604 8.072-4.408 7.817-8.341 7.854-6.825 8.059-1.298 7.895-3.495 7.722-6.405 7.844-1.812 7.687-4.564 7.632-4.742 7.553-5.752 7.585-2.731 7.487-4.524 7.437-4.677 7.371-5.838 7.303-7.726 7.309-4.739 7.263-4.919 7.217-5.483" fill="none" stroke="#000"/>
  <path d="M-209 451.86l10.927-5.718 10.585-6.868 9.843-10.05 10.175-8.131 10.023-8.532 11.642.231 10.322-6.016 10.738-3.29 10.102-6.233 9.873-7.07 9.123-11.077 11.163 1.473 10.163-3.838 9.282-8.833 8.763-11.892 10.395-.744 9.469-6.349 9.481-5.761 9.166-7.518 9.107-7.556 9.201-6.371 9.395-4.317 8.932-7.456 8.763-8.451 8.728-8.33 8.937-6.027 8.317-11.273 8.897-5.4 9.44.688 8.704-5.876 8.946-2.629 8.626-5.293 8.176-9.838 8.597-4.354 8.351-6.661 8.314-6.465 8.564-2.373 8.481-2.484 8.475-1.454 8.258-3.613 8.201-3.562 8.206-2.292 7.709-10.215 8.038-3.387 7.969-3.467 7.895-3.812 7.725-6.432 7.825-2.884 7.755-3.124 7.631-5.032 7.567-5.545 7.639-1.457 7.43-7.174 7.475-3.589 7.379-5.814 7.333-6.196 7.306-5.545 7.249-6.758 7.277-.064" fill="none" stroke="#000"/>
  <path d="M-218.153 446.903l10.819-6.182 10.994-4.938 10.701-5.836 10.188-7.87 10.478-6.075 10.644-4.755 10.252-6.29 9.881-7.841 10.403-4.597 9.572-8.741 9.206-10.516 11.104.96 10.075-4.459 8.935-10.992 9.096-9.746 10.596.39 9.513-6.07 9.502-5.645 9.475-5.306 9.244-6.462 9.115-6.964 9.099-6.597 9.228-5.091 8.134-13.526 9.395-2.72 8.991-5.486 7.967-14.223 8.948-4.962 9.344-.481 8.736-5.602 8.948-2.76 8.231-9.658 8.704-3.984 8.48-5.808 8.304-7.25 8.319-6.516 8.524-3.147 8.87 2.564 8-8.411 8.381-2.169 8.292-2.417 8.121-4.058 7.967-5.747 7.951-5.134 7.991-3.363 7.847-5.097 7.693-7.351 7.835-3.118 7.892-.218 7.591-6.387 7.629-4.088 7.642-1.981 7.515-4.14 7.406-6.599 7.456-2.763 7.274-9.016 7.29-6.945 7.287-4.712 7.295-.664" fill="none" stroke="#000"/>
  <path d="M-228.327 437.231l10.747-6.582 11.596-2.272 10.634-6.185 10.695-5.443 10.228-7.285 10.897-3.529 9.572-9.784 10.938-2.315 10.601-3.494 10.072-5.846 9.54-8.406 10.096-4.825 8.999-10.835 8.892-11.268 9.376-8.035 10.838 1.745 9.612-5.459 9.397-6.401 9.478-5.378 9.502-4.661 9.191-6.39 9.042-7.026 9.102-6.115 7.948-14.859 9.752.059 8.126-12.924 8.897-6.005 9.435-.57 8.828-5.338 8.405-8.847 9.05-1.97 8.352-8.387 8.682-4.357 8.763-2.715 8.381-6.282 8.363-5.87 8.58-2.489 8.128-7.433 8.683.761 8.289-3.561 8.199-3.957 8.263-1.979 7.927-6.381 7.969-4.846 7.906-5.051 7.712-7.83 7.943-2.336 7.937-1.062 7.618-6.862 7.779-1.903 7.61-4.718 7.591-3.779 7.483-5.594 7.478-4.293 7.433-4.214 7.316-7.081 7.328-5.032 7.295-4.437 7.258-3.895" fill="none" stroke="#000"/>
  <path d="M-239.06 425.058l11.601-2.92 10.545-7.134 12.021.076 10.776-5.099 10.661-5.194 10.682-4.602 9.147-11.878 10.841-2.93 10.822-2.432 10.437-3.917 10.451-3.279 8.253-15.252 10.163-4.083 9.22-9.166 8.87-11.023 10.696.682 10.08-2.481 9.488-5.744 9.099-7.905 8.712-10.236 10.018-.589 9.196-5.854 8.346-11.838 8.561-9.986 9.529-1.895 8.269-11.615 9.297-2.608 8.782-6.429 8.806-5.685 9.217-1.221 8.142-10.824 8.879-3.175 8.929-1.833 8.618-4.33 8.502-4.89 8.424-5.069 8.234-6.72 8.644-.925 8.252-4.976 8.282-3.827 8.389-1.371 8.019-5.806 7.916-6.618 8.042-3.871 7.707-8.655 7.999-2.782 8.067-.221 7.688-6.424 7.746-4.252 7.747-3.054 7.645-4.118 7.634-3.032 7.491-5.492 7.486-4.373 7.425-4.761 7.327-6.795 7.338-4.959 7.269-6.14 7.314-1.634" fill="none" stroke="#000"/>
  <path d="M-247.551 422.45l10.908-5.911 10.321-8.101 11.873-.691 11.199-3.172 10.668-5.158 10.408-5.943 10.287-6.121 10.731-3.435 9.873-7.352 11.012-.895 9.435-8.852 8.215-15.372 10.346-3.159 9.978-4.747 9.351-7.991 10.349-1.471 9.76-4.523 9.134-8.051 8.978-8.744 8.145-14.117 10.709 3.964 9.521-3.599 9.053-6.462 8.736-8.424 8.755-7.924 8.486-9.704 8.429-9.884 9.556.086 9.163-2.499 8.693-6.03 8.516-7.177 8.343-8.381 9.15.161 8.658-3.983 8.489-5.078 8.432-5.042 8.357-5.277 8.476-3.115 8.174-6.089 8.432-2.026 8.131-5.175 8.175-3.774 8.05-4.717 8.026-4.269 7.745-7.967 8.05-2.105 8.045-.989 7.766-4.938 7.706-5.145 7.72-3.862 7.648-4.28 7.599-4.198 7.494-5.699 7.475-5.048 7.521-2.282 7.282-8.346 7.414-2.46 7.314-4.341 7.246-5.293" fill="none" stroke="#000"/>
  <path d="M-256.387 418.131l9.395-12.397 11.241-4.113 11.94-.479 11.161-3.411 10.792-4.593 10.631-4.885 10.612-4.515 10.43-4.944 10.679-3.177 10.233-4.975 9.586-7.968 7.854-17.165 10.559-2.03 9.276-8.795 10.757.25 9.621-5.865 9.663-5.147 9.419-6.223 8.564-11.349 8.225-13.456 10.462 2.011 9.891-1.121 9.368-4.188 9.12-5.446 8.312-11.158 8.023-13.222 9.274-3.014 9.301-2.072 8.894-4.849 8.787-5.22 7.771-13.97 9.134-1.04 8.758-3.82 8.964-1.061 8.26-7.535 8.578-3.599 8.195-7.169 8.747-.185 7.828-10.341 8.843 2.806 7.892-8.349 8.196-3.717 8.109-4.083 8.148-2.637 8.061-2.981 7.927-4.161 7.758-6.145 7.746-5.513 7.874-2.274 7.537-7.769 7.701-3.599 7.736-1.476 7.432-7.435 7.629-1.349 7.502-3.088 7.344-6.336 7.349-4.965 7.295-5.349 7.263-5.035" fill="none" stroke="#000"/>
  <path d="M-265.152 413.897l10.408-7.962 10.639-6.629 10.827-5.408 11.007-4.145 10.607-5.521 11.784.484 10.76-3.771 9.715-8.424 10.51-4.1 10.714-2.534 10.414-3.543 8.636-12.628 9.209-9.349 9.508-7.39 10.152-3.279 9.443-6.924 8.881-9.962 9.903-3.349 8.155-13.951 9.467-5.306 10.188.04 10.131.444 9.112-5.994 9.097-5.659 9.171-4.599 8.137-12.023 9.115-4.14 8.875-5.481 8.564-7.596 9.045-3.016 8.39-8.19 8.529-6.516 8.666-4.712 8.851-2.271 8.215-7.959 8.908-.269 8.387-4.962 8.332-4.927 8.279-4.868 8.328-3.597 7.825-9.169 8.386-1.419 8.027-5.322 8.117-3.269 8.107-2.537 7.83-5.839 7.562-9.496 8.123.556 7.825-3.346 7.529-7.952 7.827-1.314 7.575-5.263 7.685-1.769 7.596-2.346 7.36-7.038 7.422-4.378 7.314-6.177 7.273-6.403 7.328-3.164" fill="none" stroke="#000"/>
  <path d="M-272.87 413.752l10.035-9.368 11.238-3.954 10.322-7.464 10.798-5.008 11.047-3.422 10.65-4.763 10.924-2.997 9.691-8.47 9.69-8.177 10.212-5.201 11.45 1.685 9.21-9.483 9.061-10.016 8.736-11.623 10.453-1.655 9.376-7.328 8.801-10.394 10.19-1.68 9.325-6.468 9.674-3.795 9.115-6.933 9.628-3.075 9.241-5.15 9.113-5.575 9.066-5.43 8.908-6.117 8.994-5.008 8.933-4.973 8.806-5.475 8.246-9.669 8.887-3.847 8.467-6.97 7.986-10.953 9.164.435 8.797-2.172 8.449-4.967 8.169-7.322 8.491-3.309 8.419-3.387 8.263-4.443 7.87-8.532 8.215-3.744 8.013-5.613 8.303-.984 8.096-2.854 7.884-5.081 7.688-7.4 7.943-2.615 7.838-3.323 7.69-5.04 7.586-6.099 7.752-1.897 7.65-2.809 7.621-2.172 7.381-6.494 7.365-5.952 7.349-5.459 7.26-6.793 7.285-5.091" fill="none" stroke="#000"/>
  <path d="M-280.81 412.392l10.663-6.61 10.387-7.419 10.526-6.489 10.851-4.677 10.906-3.978 9.515-9.903 10.505-5.016 11.728 1.285 9.045-11.144 10.84-1.984 10.873-1.228 8.457-13.276 9.182-9.298 9.349-8.142 9.317-8.016 9.445-6.937 9.556-5.941 10.032-2.64 9.902-2.86 9.005-7.943 8.87-8.47 9.32-5.206 9.088-6.282 9.765-1.142 8.666-8.309 9.255-3.64 9.096-4.279 8.916-5.107 8.473-8.15 8.473-7.79 8.4-8.05 9.066-1.855 8.871-2.901 8.365-6.87 8.741-2.841 8.185-7.597 8.435-4.639 8.448-3.865 8.473-2.917 8.327-3.785 8.051-6.314 7.916-7.384 8.172-3.693 8.085-4.035 8.295-.371 7.769-6.752 7.599-8.76 8.013-1.831 7.98-1.295 7.699-4.914 7.612-5.658 7.672-3.691 7.631-3.481 7.618-2.61 7.523-3.489 7.4-5.185 7.188-9.521 7.354-4.505 7.395-1.943" fill="none" stroke="#000"/>
  <path d="M-286.589 419.45l8.558-14.956 11.346-3.284 11.188-3.476 9.706-9.424 10.309-6.508 10.15-6.87 10.324-5.707 11.072-1.771 10.196-5.438 10.472-3.664 9.182-9.666 8.752-11.636 9.153-9.4 9.827-5.519 8.804-10.733 9.37-7.37 8.835-10.083 10.228-1.669 10.863 2.814 9.066-7.478 8.545-10.437 8.986-7.371 9.645-2.626 8.335-10.967 9.857-.127 9.239-3.827 9.083-4.414 8.849-5.666 8.66-6.645 8.699-5.943 8.663-5.771 8.362-7.822 8.82-3.487 8.811-2.897 8.561-4.548 8.462-4.917 7.887-10.026 8.542-3.094 8.553-2.25 8.419-2.916 8.145-5.261 8.136-4.755 8.078-4.83 8.131-3.492 8.059-3.621 7.8-6.362 7.793-5.887 7.897-3.717 7.981-1.511 7.73-4.5 7.669-4.706 7.624-4.677 7.773-.914 7.567-3.702 7.37-6.806 7.435-4.596 7.376-4.903 7.32-5.282 7.365-2.93" fill="none" stroke="#000"/>
  <path d="M-295.497 413.628l10.335-7.639 10.266-7.621 11.01-4.185 10.453-6.11 9.922-8.082 10.59-4.796 10.29-5.733 10.193-5.801 10.292-4.949 10.26-4.663 9.382-8.599 9.44-8.019 9.335-8.271 9.231-8.529 9.427-7.187 8.752-10.591 8.185-13.615 10.295-1.341 10.513.591 10.02-1.698 9.153-6.462 9.083-6.532 8.467-10.18 8.263-11.308 9.73-1.1 8.804-6.943 9.615-.704 8.916-5.158 8.284-9.508 9.035-3.37 8.187-9.594 8.887-3.543 8.779-3.86 8.531-5.456 8.57-4.597 8.65-3.268 7.954-9.309 8.655-2.064 8.593-1.914 8.288-4.398 8.144-5.311 8.027-6.07 8.265-2.733 8.035-4.75 8.002-4.511 7.962-4.327 7.738-6.669 7.978-2.68 7.9-2.919 7.822-3.207 7.581-6.26 7.668-4.035 7.801-.815 7.599-3.319 7.387-6.502 7.402-5.368 7.282-7.212 7.478-1.852 7.336-3.984" fill="none" stroke="#000"/>
  <path d="M-303.747 410.241l10.121-8.421 10.225-7.72 11.01-4.153 10.042-7.82 10.741-4.507 10.177-6.559 10.134-6.408 10.058-6.39 10.126-5.728 10.607-3.034 9.655-7.185 9.306-8.605 9.54-7.155 9.206-8.548 9.258-8.018 9.572-6.005 7.362-17.929 9.873-3.766 10.266-.997 10.483.948 9.507-4.284 8.801-8.217 8.3-11.142 8.696-8.389 8.717-7.946 9.481-2.363 9.623-.736 8.943-4.995 8.583-7.177 8.475-7.647 8.292-8.736 8.615-5.838 9.279.139 8.562-5.188 8.537-4.892 8.499-4.701 8.408-5.016 8.54-3.188 8.263-5.268 8.416-3.188 8.255-4.185 8.15-4.68 8.083-4.836 8.042-4.725 7.978-4.828 8.043-3.392 7.878-4.772 7.914-3.626 7.698-5.908 7.787-3.935 7.645-5.33 7.661-4.344 7.744-2.129 7.696-1.909 7.44-5.577 7.287-7.782 7.451-3.779 7.449-2.782 7.193-7.538" fill="none" stroke="#000"/>
  <path d="M-312.071 406.36l10.571-6.556 10.22-7.629 10.526-6.085 10.339-6.505 10.104-7.167 8.91-12.05 11.032-2.502 9.895-7.145 10.639-3.384 10.744-2.411 9.738-6.75 9.545-7.352 9.317-8.203 9.23-8.349 8.968-9.473 8.819-10.032 10.386-1.252 9.545-5.357 8.949-8.363 10.241-.521 9.25-5.814 8.281-11.354 8.984-6.809 9.05-6.019 9.134-5.066 9.045-5.223 9.166-3.93 8.755-6.33 8.86-5.172 8.066-10.636 8.236-9.167 8.478-6.986 9.798 4.094 8.556-5.241 8.561-4.71 8.494-4.782 8.605-3.244 8.12-7.15 8.403-4.03 8.596-1.481 8.212-4.687 8.155-4.659 7.798-8.029 8.319-1.72 8.072-3.788 7.954-4.542 7.803-5.812 7.702-6.561 8.064-1.059 7.776-4.196 7.639-5.438 7.666-4.376 7.672-3.524 7.79-.575 7.292-8.25 7.341-6.862 7.583-1.449 7.363-4.782 7.448-1.9" fill="none" stroke="#000"/>
  <path d="M-320.482 401.96l10.513-6.739 10.262-7.4 10.395-6.57 10.443-6.034 9.668-8.951 9.919-7.632 9.795-7.886 10.653-3.769 10.814-2.572 10.324-4.355 9.949-5.72 9.413-7.938 9.532-7.064 9.717-5.811 9.22-8.005 9.461-6.456 9.096-8.059 9.425-5.976 9.023-7.873 10.201-.774 9.255-5.728 9.042-6.631 9.091-5.976 8.682-8.158 9.145-4.889 8.545-8.403 8.876-5.881 8.397-8.814 9.072-3.726L-35 203.838l8.408-7.906 9.338-.427 9.214-.688 9.048-1.317 8.542-4.844 8.489-4.814 8.32-5.782 8.066-7.626 8.599-2.29 8.588-1.672 8.218-4.664 8.163-4.634 8.185-3.822 8.177-3.274 7.983-4.812 7.758-6.859 7.935-4.205 7.924-3.712 7.93-2.887 7.636-6.088 7.691-4.768 7.706-3.839 7.793-1.736 7.66-2.796 6.978-13.459 7.312-7.612 7.873 3.427 7.438-3.408 7.424-2.648" fill="none" stroke="#000"/>
  <path d="M-329.057 396.772l10.583-6.43 10.322-7.123 10.324-6.804 10.451-5.972 9.922-7.83 10.123-6.699 9.123-10.704 10.827-3.002 11.029-1.629 10.209-4.863 9.897-5.929 9.629-6.857 9.526-7.032 9.596-6.371 8.776-10.203 9.854-4.411 8.323-12.118 9.69-4.594 9.384-5.878 10.545 1.096 8.566-9.684 8.666-8.876 9.621-2.868 9.257-4.575 8.924-6.25 8.36-9.545 8.913-5.642 8.142-10.491 8.39-8.591 8.464-7.777 8.822-4.851 9.83 3.225 8.932-2.812 8.521-5.51 8.532-4.951 8.564-4.207 8.282-6.126 8.542-3.357 7.914-8.535 8.72-.621 8.311-3.8 7.865-7.693 8.36-2.202 8.365-1.427 8.12-3.309 7.79-6.419 7.887-4.806 7.797-5.298 8.003-2.092 7.421-8.929 7.919-1.804 7.798-2.612 7.787-1.928 7.583-4.11 7.266-8.502 7.303-7.429 7.628-1.159 7.422-3.849 7.344-4.409" fill="none" stroke="#000"/>
  <path d="M-337.438 392.156l10.65-6.126 10.416-6.703 10.222-7.15 10.314-6.484 10.325-6.112 9.776-8.075 9.459-9.172 10.257-5.47 11.191-.949 10.356-4.188 9.774-6.461 9.881-5.618 9.639-6.435 9.594-6.315 9.639-5.741 9.384-6.693 9.131-7.696 9.429-5.814 9.524-4.919 9.201-6.325 9.032-6.93 7.924-13.063 9.615-2.946 9.644-2.258 9.099-5.105 9.037-5.096 7.304-15.975 9.055-4.373 8.691-6.395 9.658.763 8.273-8.478 8.925-3.403 8.039-9.545 8.344-6.991 9.306 1.056 8.497-4.763 8.311-5.865 8.524-3.573 8.219-5.722 7.917-8.051 8.607-1.204 8.305-3.409 8.239-3.462 8.059-4.685 8.362-.898 7.965-4.478 7.459-9.653 8.193-.744 7.884-3.648 7.774-4.344 7.59-6.115 7.79-2.825 7.734-2.854 7.604-3.933 7.357-7.024 7.285-7.658 7.62-1.476 7.346-5.306 7.349-4.54" fill="none" stroke="#000"/>
  <path d="M-345.843 387.297l10.663-6.038 10.518-6.263 10.04-7.819 10.198-6.908 10.083-7.083 10.313-5.82 10.951-2.784 10.032-6.285 10.206-5.191 10.021-5.639 9.889-5.892 9.881-5.588 9.645-6.352 9.585-6.312 9.688-5.47 9.357-6.771 8.997-8.306 9.881-3.408 8.201-11.967 10.171-1.062 8.707-8.712 8.222-11.238 9.432-4.019 9.707-1.938 8.639-7.921 9.075-4.906 8.677-7.051 8.921-5.104 8.803-5.494 8.736-5.54 8.481-6.935 8.72-4.892 7.803-11.209 9.335.545 8.559-4.768 8.502-4.739 8.449-4.71 8.225-6.12 8.096-6.825 8.599-1.97 8.602-1.274 8.314-3.293 7.859-7.113 8.572.422 7.89-5.782 7.771-6.574 7.634-7.685 8.155-1.347 7.916-3.368 7.803-4.064 7.841-2.963 7.712-3.86 7.524-5.806 7.636-3.604 7.473-5.263 7.411-5.594 7.376-5.54 7.362-5.156 7.338-4.822" fill="none" stroke="#000"/>
  <path d="M-354.2 382.463l10.663-6.002 10.389-6.717 10.362-6.51 9.467-9.744 11.083-3.043 9.588-8.736 11.153-1.971 10.34-4.932 9.986-6.102 9.994-5.741 10.01-5.328 9.723-6.279 9.741-5.865 9.604-6.175 9.666-5.548 9.462-6.206 9.666-4.836 9.497-5.333 8.739-8.965 9.289-5.76 8.779-8.225 8.922-7.177 9.214-5.172 8.443-9.338 9.255-4.25 8.217-10.168 9.341-2.955 8.481-7.969 9.354-1.936 8.833-4.905 8.335-7.914 8.879-3.782 8.679-4.728 8.258-7.414 8.596-4.532 8.709-3.163 8.271-6.156 7.908-8.749 8.65-2.204 8.801-.28 8.045-6.293 8.378-2.819 8.543-.651 8.128-3.948 7.567-9.04 8.352-.635 7.878-4.921 7.787-5.387 7.809-4.634 7.938-2.53 7.795-3.559 7.529-6.246 7.639-4.299 7.58-4.478 7.564-4.069 7.462-4.86 7.484-3.841 7.236-7.091 7.153-7.957" fill="none" stroke="#000"/>
  <path d="M-362.436 377.929l10.303-7.293 10.593-5.924 10.376-6.424 9.521-9.465 11.157-2.744 10.505-4.949 10.228-5.72 10.421-4.58 10.14-5.4 9.889-6.14 9.948-5.567 9.526-7.131 9.817-5.486 9.698-5.718 9.631-5.679 9.57-5.642 9.507-5.608 9.497-5.303 9.12-6.914 8.908-7.725 9.107-6.389 9.155-5.793 8.494-9.182 8.317-9.999 9.096-5.229 8.645-7.561 9.773-.306 7.876-11.68 9.352-2.043 8.696-5.83 7.988-10.247 9.228-1.497 9.303-.357 8.387-6.384 8.65-4.067 8.244-6.688 8.29-5.973 7.679-10.507 9.115 1.513 8.344-4.233 8.166-5.277 8.698-.043 8.25-3.432 8.263-2.737 7.846-6.198 8.239-1.836 7.817-5.521 7.714-6.134 7.814-4.589 8.024-1.666 7.736-4.285 7.532-6.169 7.591-4.97 7.593-4.355 7.543-4.405 7.515-4.153 7.47-4.151 6.914-11.977 7.653-.105" fill="none" stroke="#000"/>
  <path d="M-370.697 373.152l9.677-9.534 10.473-6.376 11.106-3.658 9.884-7.994 10.951-3.527 10.698-4.142 10.018-6.521 10.416-4.578 10.08-5.613 9.89-6.107 9.91-5.696 9.438-7.472 9.876-5.218 9.701-5.661 9.746-5.118 9.567-5.615 9.491-5.655 9.357-5.995 9.317-5.849 8.889-7.773 9.083-6.465 8.814-7.623 8.921-6.763 9.01-5.933 8.986-5.739 8.462-8.51 8.723-6.674 8.171-9.795 9.486-1.25 8.422-7.602 7.862-11.042 10.206 5.048 8.817-3.763 8.432-6.019 8.467-5.408 7.731-10.521 8.443-4.892 9.002-.072 8.637-2.312 8.255-4.919 8.099-5.774 8.378-2.938 8.438-1.83 8.225-3.132 7.873-5.94 8.215-2.154 7.884-4.857 7.929-3.854 7.672-6.081 7.859-3.545 7.731-4.39 7.61-5.279 7.666-4.056 7.494-5.634 7.532-4.615 7.537-3.927 7.492-3.93 7.031-9.989 7.559-1.693" fill="none" stroke="#000"/>
  <path d="M-378.914 368.403l10.169-7.685 10.556-5.995 10.614-5.464 10.156-6.882 10.859-3.852 10.427-5.185 10.322-5.257 10.118-5.753 10.082-5.583 9.975-5.704 9.922-5.612 9.464-7.306 9.938-4.898 9.803-5.153 9.601-5.755 9.433-6.222 9.502-5.575 9.44-5.54 9.233-6.244 9.131-6.476 8.986-6.913 8.935-6.903 8.373-9.701 9.626-2.489 8.639-7.669 9.209-4.067 8.707-6.647 8.548-7.298 8.771-5.629 8.031-9.975 8.008-9.975 9.975 3.343 8.916-3.11 8.653-4.472 8.518-4.992 8.223-6.742 8.174-6.784 8.989-.177 8.394-4.226 8.196-5.338 8.18-5.075 8.601-1.011 8.166-4.196 8.153-3.833 7.905-5.586 7.997-4.292 8.097-2.809 7.805-5.14 7.847-4.242 7.744-4.779 7.728-4.497 7.679-4.47 7.532-5.69 7.414-6.629 7.609-3.728 7.591-3.35 7.379-5.529 7.44-4.137 7.32-5.225" fill="none" stroke="#000"/>
  <path d="M-387.083 363.677l10.583-6.137 10.577-5.854 10.185-6.997 10.644-4.992 10.562-4.954 10.464-4.994 10.042-6.325 10.029-6.099 10.215-5.016 9.948-5.779 9.886-5.741 9.508-7.064 9.714-5.879 9.752-5.39 9.693-5.324 9.629-5.293 9.564-5.255 9.499-5.22 9.174-6.508 9.158-6.287 9.236-5.562 9.091-6.005 8.534-8.685 9.22-4.693 8.836-6.478 8.709-6.892 8.814-5.986 9.096-3.954 8.446-7.524 9.338-1.661 7.911-10.29 9.09-2.384 8.121-8.384 8.865-3.059 8.11-7.846 8.738-3.08 8.01-7.935 9.072.336 8.559-2.957 8.298-4.513 8.147-5.264 8.355-3.139 8.168-4.199 7.976-5.435 8.244-2.578 8.05-3.787 7.989-3.865 7.688-6.296 7.943-3.301 7.725-5.013 7.631-5.545 7.742-3.89 7.48-6.252 7.202-9.204 7.698-2.811 7.508-4.594 7.429-5 7.368-5.303 7.306-5.658" fill="none" stroke="#000"/>
  <path d="M-395.281 358.71l10.505-6.374 10.623-5.658 10.752-4.865 10.515-5.419 10.739-4.228 9.883-7.191 9.97-6.588 10.099-5.771 9.749-6.911 10.414-3.852 9.956-5.419 9.389-7.537 9.763-5.637 9.819-5.067 9.696-5.298 9.628-5.263 9.51-5.491 9.502-5.194 9.333-5.685 9.223-5.916 9.117-6.142 8.914-6.9 8.773-7.363 9.462-3.352 8.992-5.532 8.725-6.706 8.763-6.199 8.166-9.397 9.239-2.739 8.9-4.371 8.405-7.085 8.98-3.078 8.14-8.169 8.913-2.707 8.596-4.4 7.664-10.545 8.451-4.752 8.873-1.213 8.583-2.806 7.714-9.05 8.68-1.143 8.317-3.508 8.163-4.303 7.887-6.209 8.136-3.632 8.435-.433 7.943-4.306 7.79-5.3 7.852-4.253 7.695-5.322 7.548-6.416 7.839-2.901 7.394-7.222 7.201-9.105 7.581-4.392 7.526-4.443 7.481-4.521 7.217-7.363 7.704-.363" fill="none" stroke="#000"/>
  <path d="M-403.127 354.847l10.362-6.825 10.553-5.87 10.599-5.398 10.883-4.019 9.895-7.386 10.147-6.166 10.185-5.726 10.155-5.529 9.693-7.091 10.026-5.449 10.086-4.881 9.827-5.642 9.825-5.341 9.698-5.572 9.696-5.269 9.574-5.5 9.51-5.464 9.505-5.164 9.389-5.395 9.277-5.623 9.142-5.986 9.128-5.739 8.814-7.072 8.647-7.693 9.408-3.296 8.795-6.284 8.387-8.298 8.483-7.532 9.228-2.846 9.392-1.393 8.336-7.397 8.392-6.793 9.109-1.855 8.276-6.857 8.468-5.263 7.8-9.499 9.032-.624 8.58-3.282 8.161-5.946 8.343-4.185 8.097-5.68 8.397-2.892 7.989-5.725 7.919-5.952 8.475-.763 8.182-2.723 7.782-5.819 7.817-5.073 7.996-2.93 7.758-4.741 7.513-6.723 7.849-2.881 7.583-5.145 7.634-4.102 7.241-8.08 6.957-11.18 7.701-1.932 7.182-7.771 7.865 1.502" fill="none" stroke="#000"/>
</svg>
