<svg viewBox="0 0 446 147" xmlns="http://www.w3.org/2000/svg" fill-rule="evenodd" clip-rule="evenodd" stroke-linejoin="round" stroke-miterlimit="1.414">
  <path d="M240.068 42.911h10.51v20.483a14.33 14.33 0 0 1 4.1-2.41 18.036 18.036 0 0 1 7.3-1.337 18.386 18.386 0 0 1 8.054 1.691 18.627 18.627 0 0 1 6.009 4.569 19.331 19.331 0 0 1 3.781 6.763 26.264 26.264 0 0 1 1.291 8.283 23.753 23.753 0 0 1-1.645 8.865 21.168 21.168 0 0 1-4.718 7.208 22.91 22.91 0 0 1-7.437 4.9 28.056 28.056 0 0 1-10.35 1.828 89.913 89.913 0 0 1-16.908-1.428l.013-59.415zm10.51 50.848c.839.302 1.703.527 2.582.674 1.386.181 2.784.257 4.181.229a13.254 13.254 0 0 0 5.609-1.143 12.567 12.567 0 0 0 4.1-2.981 12.408 12.408 0 0 0 2.536-4.319c.561-1.616.847-3.315.846-5.026a18.368 18.368 0 0 0-.583-4.638 11.892 11.892 0 0 0-1.828-3.964 9.138 9.138 0 0 0-3.164-2.765 9.584 9.584 0 0 0-4.57-1.028c-3.206 0-5.624.815-7.254 2.444a9.15 9.15 0 0 0-2.445 6.729l-.01 15.788zm115.154-50.848h10.51v20.483a14.33 14.33 0 0 1 4.1-2.41 18.036 18.036 0 0 1 7.3-1.337 18.386 18.386 0 0 1 8.054 1.691 18.599 18.599 0 0 1 6.009 4.569 19.331 19.331 0 0 1 3.781 6.763 26.35 26.35 0 0 1 1.291 8.283 23.753 23.753 0 0 1-1.645 8.865 21.168 21.168 0 0 1-4.718 7.208 22.91 22.91 0 0 1-7.437 4.9 28.056 28.056 0 0 1-10.35 1.828 89.925 89.925 0 0 1-16.9-1.451l.005-59.392zm10.51 50.848c.838.302 1.702.527 2.581.674a27.97 27.97 0 0 0 4.182.229 13.24 13.24 0 0 0 5.609-1.143 12.567 12.567 0 0 0 4.1-2.981 12.408 12.408 0 0 0 2.536-4.319c.562-1.616.848-3.315.846-5.026a18.368 18.368 0 0 0-.583-4.638 11.872 11.872 0 0 0-1.828-3.964 9.138 9.138 0 0 0-3.164-2.765 9.584 9.584 0 0 0-4.57-1.028c-3.206 0-5.624.815-7.254 2.444a9.15 9.15 0 0 0-2.445 6.729l-.01 15.788zM184.216 42.911h11.218V78.44a25.602 25.602 0 0 0 .663 6.1 11.93 11.93 0 0 0 2.182 4.627 9.623 9.623 0 0 0 4.009 2.936 18.95 18.95 0 0 0 12.293 0 9.641 9.641 0 0 0 4.01-2.936 11.934 11.934 0 0 0 2.181-4.627 25.5 25.5 0 0 0 .663-6.1V42.911h11.218v37.528c.029 3.16-.517 6.3-1.61 9.265a20.91 20.91 0 0 1-4.718 7.437 22.328 22.328 0 0 1-7.609 4.992 29.89 29.89 0 0 1-20.563 0 22.3 22.3 0 0 1-7.608-4.992 20.912 20.912 0 0 1-4.719-7.437 26.181 26.181 0 0 1-1.6-9.265l-.01-37.528zm102.587 0h10.51v10.51h-10.51v-10.51zm0 17.627h10.51v41.766h-10.51V60.538zm17.902-17.627h10.51v59.4h-10.51v-59.4zm43.548 55.473a14.41 14.41 0 0 1-5.164 3.656 18.286 18.286 0 0 1-7.745 1.6 16.835 16.835 0 0 1-5.118-.8 14.332 14.332 0 0 1-4.627-2.445 12.223 12.223 0 0 1-3.427-4.226 13.38 13.38 0 0 1-1.291-6.055 14.577 14.577 0 0 1 1.337-6.363 13.196 13.196 0 0 1 3.735-4.718 16.581 16.581 0 0 1 5.792-2.891 26.838 26.838 0 0 1 7.483-.982h2.765c1.012 0 1.991.046 2.936.137l3.29.183v-.983a5.72 5.72 0 0 0-2.491-4.9 10.948 10.948 0 0 0-6.5-1.782 18.184 18.184 0 0 0-7.129 1.143 31.996 31.996 0 0 0-4.718 2.49l-4.809-7.117a37.341 37.341 0 0 1 2.844-1.828 22.284 22.284 0 0 1 3.747-1.691 31.076 31.076 0 0 1 4.936-1.245 38.884 38.884 0 0 1 6.546-.491 22.293 22.293 0 0 1 7.254 1.142 16.67 16.67 0 0 1 5.609 3.085 13.586 13.586 0 0 1 3.564 4.809 14.834 14.834 0 0 1 1.245 6.1v28.057h-9.79l-.274-3.885zm0-14.954l-3.119-.183a65.902 65.902 0 0 0-2.627-.137h-2.354c-3.381 0-5.757.667-7.128 2a6.252 6.252 0 0 0-2.045 4.57 5.045 5.045 0 0 0 1.919 4.181 8.98 8.98 0 0 0 5.655 1.508c2.42.006 4.773-.799 6.683-2.285a9.138 9.138 0 0 0 2.182-2.49 5.846 5.846 0 0 0 .845-3.028l-.011-4.136zm67.459 6.934a15.67 15.67 0 0 0 4.946 3.245 16.959 16.959 0 0 0 6.855 1.291 13.78 13.78 0 0 0 5.426-.892 3.041 3.041 0 0 0 2.045-2.935 3.3 3.3 0 0 0-1.874-3.119 16.972 16.972 0 0 0-3.21-1.428 55.742 55.742 0 0 0-5.518-1.52 38.42 38.42 0 0 1-4.455-1.428 16.766 16.766 0 0 1-4.318-2.444 13.232 13.232 0 0 1-3.29-3.736 10.063 10.063 0 0 1-1.291-5.209c-.034-1.96.489-3.89 1.508-5.564a13.358 13.358 0 0 1 3.964-4.1 19.57 19.57 0 0 1 5.517-2.536 22.105 22.105 0 0 1 6.192-.891 33.112 33.112 0 0 1 9.391 1.142 22.33 22.33 0 0 1 6.991 3.427l-5.438 7.392a18.261 18.261 0 0 0-4.455-2.285 18.666 18.666 0 0 0-6.5-1.028c-2.491 0-4.227.381-5.21 1.142a3.316 3.316 0 0 0-1.473 2.719c0 1.31.815 2.334 2.445 3.073a45.781 45.781 0 0 0 7.608 2.365 33.666 33.666 0 0 1 5.712 1.782 15.877 15.877 0 0 1 4.364 2.673 10.947 10.947 0 0 1 2.81 3.782 12.714 12.714 0 0 1 .983 5.209 10.683 10.683 0 0 1-1.428 5.472 12.884 12.884 0 0 1-3.873 4.147 19.35 19.35 0 0 1-5.712 2.627 24.82 24.82 0 0 1-6.855.937 32.049 32.049 0 0 1-10.6-1.645 17.683 17.683 0 0 1-7.574-4.855l6.317-6.81zM73.414 0h-.003C33.139 0 0 33.139 0 73.411s33.139 73.411 73.411 73.411 73.411-33.139 73.411-73.411v-.001c0-40.272-33.138-73.41-73.41-73.41h-.001.003zM49.287 94.26h-.001c-11.444 0-20.861-9.417-20.861-20.861s9.417-20.861 20.861-20.861 20.861 9.417 20.861 20.861v.001c0 11.443-9.417 20.86-20.86 20.86zm36.9-.057h-8V52.482h8v41.721zm15.994 0h-8V52.482h8v41.721zm15.994 0h-8V52.482h8v41.721z" fill-rule="nonzero"/>
  <path d="M49.287 60.456h-.001c-7.101 0-12.944 5.843-12.944 12.944 0 7.101 5.843 12.944 12.944 12.944 7.101 0 12.944-5.843 12.944-12.944-.006-7.098-5.845-12.937-12.943-12.944z" fill-rule="nonzero"/>
</svg>
